<svg width="1728" height="1117" viewBox="0 0 1728 1117" fill="none" xmlns="http://www.w3.org/2000/svg">
<g clip-path="url(#clip0_102_12)">
<rect width="1728" height="1117" fill="#1C222B"/>
<path d="M903.202 -55L917.976 -40.2257L-116.226 993.976L-131 979.202L903.202 -55Z" fill="#F5C53E"/>
<path d="M960.658 2.45567L975.432 17.23L-58.7701 1051.43L-73.5444 1036.66L960.658 2.45567Z" fill="#F5C53E"/>
<path d="M946.431 -11.7715L960.658 2.45567L-73.5444 1036.66L-87.7715 1022.43L946.431 -11.7715Z" fill="#1C222B"/>
<path d="M931.656 -26.5458L946.431 -11.7715L-87.7715 1022.43L-102.546 1007.66L931.656 -26.5458Z" fill="#F5C53E"/>
<path d="M917.976 -40.2257L931.656 -26.5458L-102.546 1007.66L-116.226 993.976L917.976 -40.2257Z" fill="#1C222B"/>
<path d="M975.432 17.23L989.112 30.9099L-45.0899 1065.11L-58.7701 1051.43L975.432 17.23Z" fill="#1C222B"/>
<path d="M989.112 30.9099L1003.89 45.6842L-30.3159 1079.89L-45.0899 1065.11L989.112 30.9099Z" fill="#F5C53E"/>
<path d="M1018.11 59.9113L1032.89 74.6856L-1.31414 1108.89L-16.0885 1094.11L1018.11 59.9113Z" fill="#F5C53E"/>
<path d="M1003.89 45.6842L1018.11 59.9113L-16.0885 1094.11L-30.3159 1079.89L1003.89 45.6842Z" fill="#1C222B"/>
<path d="M1075.57 117.367L1090.34 132.141L56.1418 1166.34L41.3675 1151.57L1075.57 117.367Z" fill="#F5C53E"/>
<path d="M1061.34 103.14L1075.57 117.367L41.3675 1151.57L27.1404 1137.34L1061.34 103.14Z" fill="#1C222B"/>
<path d="M1047.12 88.9127L1061.34 103.14L27.1404 1137.34L12.9133 1123.11L1047.12 88.9127Z" fill="#F5C53E"/>
<path d="M1032.89 74.6856L1047.12 88.9127L12.9133 1123.11L-1.31414 1108.89L1032.89 74.6856Z" fill="#1C222B"/>
<path d="M1090.34 132.141L1104.57 146.368L70.3689 1180.57L56.1418 1166.34L1090.34 132.141Z" fill="#1C222B"/>
<path d="M1104.57 146.368L1118.8 160.596L84.596 1194.8L70.3689 1180.57L1104.57 146.368Z" fill="#F5C53E"/>
<path d="M1133.03 174.823L1147.8 189.597L113.597 1223.8L98.8231 1209.02L1133.03 174.823Z" fill="#F5C53E"/>
<path d="M1118.8 160.596L1133.03 174.823L98.8231 1209.02L84.596 1194.8L1118.8 160.596Z" fill="#1C222B"/>
<path d="M1191.03 232.826L1205.25 247.053L171.053 1281.25L156.826 1267.03L1191.03 232.826Z" fill="#F5C53E"/>
<path d="M1176.8 218.598L1191.03 232.826L156.826 1267.03L142.599 1252.8L1176.8 218.598Z" fill="#1C222B"/>
<path d="M1162.57 204.371L1176.8 218.598L142.599 1252.8L128.372 1238.57L1162.57 204.371Z" fill="#F5C53E"/>
<path d="M1147.8 189.597L1162.57 204.371L128.372 1238.57L113.597 1223.8L1147.8 189.597Z" fill="#1C222B"/>
<path d="M1205.25 247.053L1220.03 261.827L185.827 1296.03L171.053 1281.25L1205.25 247.053Z" fill="#1C222B"/>
<path d="M1220.03 261.827L1234.26 276.054L200.054 1310.26L185.827 1296.03L1220.03 261.827Z" fill="#F5C53E"/>
<path d="M1248.48 290.281L1262.71 304.508L228.508 1338.71L214.281 1324.48L1248.48 290.281Z" fill="#F5C53E"/>
<path d="M1234.26 276.054L1248.48 290.281L214.281 1324.48L200.054 1310.26L1234.26 276.054Z" fill="#1C222B"/>
<path d="M1306.49 348.284L1320.17 361.964L285.964 1396.17L272.284 1382.49L1306.49 348.284Z" fill="#F5C53E"/>
<path d="M1291.71 333.51L1306.49 348.284L272.284 1382.49L257.51 1367.71L1291.71 333.51Z" fill="#1C222B"/>
<path d="M1277.48 319.283L1291.71 333.51L257.51 1367.71L243.283 1353.48L1277.48 319.283Z" fill="#F5C53E"/>
<path d="M1262.71 304.508L1277.48 319.283L243.283 1353.48L228.508 1338.71L1262.71 304.508Z" fill="#1C222B"/>
<path d="M1321.26 363.058L1335.49 377.285L301.286 1411.49L287.058 1397.26L1321.26 363.058Z" fill="#1C222B"/>
<path d="M1335.49 377.285L1349.71 391.513L315.513 1425.71L301.286 1411.49L1335.49 377.285Z" fill="#F5C53E"/>
<path d="M1363.94 405.74L1378.72 420.514L344.514 1454.72L329.74 1439.94L1363.94 405.74Z" fill="#F5C53E"/>
<path d="M1349.71 391.513L1363.94 405.74L329.74 1439.94L315.513 1425.71L1349.71 391.513Z" fill="#1C222B"/>
<path d="M1421.4 463.195L1436.17 477.97L401.97 1512.17L387.196 1497.4L1421.4 463.195Z" fill="#F5C53E"/>
<path d="M1407.72 449.515L1421.4 463.195L387.196 1497.4L373.516 1483.72L1407.72 449.515Z" fill="#1C222B"/>
<path d="M1392.94 434.741L1407.72 449.515L373.516 1483.72L358.741 1468.94L1392.94 434.741Z" fill="#F5C53E"/>
<path d="M1378.72 420.514L1392.94 434.741L358.741 1468.94L344.514 1454.72L1378.72 420.514Z" fill="#1C222B"/>
<path d="M1436.17 477.97L1450.4 492.197L416.197 1526.4L401.97 1512.17L1436.17 477.97Z" fill="#1C222B"/>
<path d="M1450.4 492.197L1465.17 506.971L430.971 1541.17L416.197 1526.4L1450.4 492.197Z" fill="#F5C53E"/>
<path d="M1478.85 520.651L1493.63 535.425L459.425 1569.63L444.651 1554.85L1478.85 520.651Z" fill="#F5C53E"/>
<path d="M1465.17 506.971L1478.85 520.651L444.651 1554.85L430.971 1541.17L1465.17 506.971Z" fill="#1C222B"/>
<path d="M1537.4 579.201L1551.08 592.881L516.881 1627.08L503.201 1613.4L1537.4 579.201Z" fill="#F5C53E"/>
<path d="M1522.63 564.427L1537.4 579.201L503.201 1613.4L488.427 1598.63L1522.63 564.427Z" fill="#1C222B"/>
<path d="M1507.85 549.652L1522.63 564.427L488.427 1598.63L473.652 1583.85L1507.85 549.652Z" fill="#F5C53E"/>
<path d="M1493.63 535.425L1507.85 549.652L473.652 1583.85L459.425 1569.63L1493.63 535.425Z" fill="#1C222B"/>
<path d="M1551.08 592.881L1565.86 607.655L531.655 1641.86L516.881 1627.08L1551.08 592.881Z" fill="#1C222B"/>
<path d="M1565.86 607.655L1580.08 621.882L545.882 1656.08L531.655 1641.86L1565.86 607.655Z" fill="#F5C53E"/>
<path d="M1594.86 636.657L1608.54 650.337L574.337 1684.54L560.657 1670.86L1594.86 636.657Z" fill="#F5C53E"/>
<path d="M1580.08 621.882L1594.86 636.657L560.657 1670.86L545.882 1656.08L1580.08 621.882Z" fill="#1C222B"/>
<path d="M1652.31 694.112L1666.54 708.34L632.34 1742.54L618.113 1728.31L1652.31 694.112Z" fill="#F5C53E"/>
<path d="M1637.54 679.338L1652.31 694.112L618.113 1728.31L603.338 1713.54L1637.54 679.338Z" fill="#1C222B"/>
<path d="M1623.31 665.111L1637.54 679.338L603.338 1713.54L589.111 1699.31L1623.31 665.111Z" fill="#F5C53E"/>
<path d="M1608.54 650.337L1623.31 665.111L589.111 1699.31L574.337 1684.54L1608.54 650.337Z" fill="#1C222B"/>
<path d="M1666.54 708.34L1680.77 722.567L646.567 1756.77L632.34 1742.54L1666.54 708.34Z" fill="#1C222B"/>
<path d="M1680.77 722.567L1695 736.794L660.794 1771L646.567 1756.77L1680.77 722.567Z" fill="#F5C53E"/>
<path d="M1709.77 751.568L1724.54 766.342L690.342 1800.54L675.568 1785.77L1709.77 751.568Z" fill="#F5C53E"/>
<path d="M1695 736.794L1709.77 751.568L675.568 1785.77L660.794 1771L1695 736.794Z" fill="#1C222B"/>
<path d="M1767.23 809.024L1782 823.798L747.798 1858L733.024 1843.23L1767.23 809.024Z" fill="#F5C53E"/>
<path d="M1752.45 794.249L1767.23 809.024L733.024 1843.23L718.249 1828.45L1752.45 794.249Z" fill="#1C222B"/>
<path d="M1738.22 780.022L1752.45 794.249L718.249 1828.45L704.022 1814.22L1738.22 780.022Z" fill="#F5C53E"/>
<path d="M1724.54 766.342L1738.22 780.022L704.022 1814.22L690.342 1800.54L1724.54 766.342Z" fill="#1C222B"/>
<rect x="-54" y="-302" width="1836" height="1121" fill="#1C222B"/>
<path d="M751.476 574.288C749.82 574.288 748.368 574 747.12 573.424C745.872 572.824 744.9 571.996 744.204 570.94C743.532 569.86 743.196 568.624 743.196 567.232V566.296C743.196 566.176 743.232 566.08 743.304 566.008C743.4 565.912 743.508 565.864 743.628 565.864H747.768C747.888 565.864 747.984 565.912 748.056 566.008C748.152 566.08 748.2 566.176 748.2 566.296V566.98C748.2 567.82 748.512 568.528 749.136 569.104C749.76 569.656 750.6 569.932 751.656 569.932C752.592 569.932 753.3 569.692 753.78 569.212C754.284 568.732 754.536 568.12 754.536 567.376C754.536 566.824 754.38 566.356 754.068 565.972C753.756 565.564 753.312 565.192 752.736 564.856C752.184 564.496 751.32 564.016 750.144 563.416C748.704 562.696 747.528 562.024 746.616 561.4C745.704 560.776 744.924 559.972 744.276 558.988C743.628 558.004 743.304 556.816 743.304 555.424C743.304 554.032 743.628 552.82 744.276 551.788C744.948 550.732 745.884 549.928 747.084 549.376C748.284 548.8 749.652 548.512 751.188 548.512C752.796 548.512 754.224 548.824 755.472 549.448C756.72 550.048 757.692 550.9 758.388 552.004C759.084 553.108 759.432 554.38 759.432 555.82V556.54C759.432 556.66 759.384 556.768 759.288 556.864C759.216 556.936 759.12 556.972 759 556.972H754.86C754.74 556.972 754.632 556.936 754.536 556.864C754.464 556.768 754.428 556.66 754.428 556.54V555.892C754.428 555.028 754.128 554.308 753.528 553.732C752.928 553.156 752.112 552.868 751.08 552.868C750.216 552.868 749.532 553.096 749.028 553.552C748.548 553.984 748.308 554.596 748.308 555.388C748.308 555.94 748.452 556.42 748.74 556.828C749.028 557.236 749.472 557.632 750.072 558.016C750.672 558.376 751.584 558.856 752.808 559.456L753.564 559.888C754.956 560.656 756.036 561.328 756.804 561.904C757.596 562.456 758.256 563.164 758.784 564.028C759.312 564.892 759.576 565.936 759.576 567.16C759.576 569.344 758.832 571.084 757.344 572.38C755.88 573.652 753.924 574.288 751.476 574.288ZM763.051 574C762.931 574 762.823 573.964 762.727 573.892C762.655 573.796 762.619 573.688 762.619 573.568V549.232C762.619 549.112 762.655 549.016 762.727 548.944C762.823 548.848 762.931 548.8 763.051 548.8H767.263C767.383 548.8 767.479 548.848 767.551 548.944C767.647 549.016 767.695 549.112 767.695 549.232V573.568C767.695 573.688 767.647 573.796 767.551 573.892C767.479 573.964 767.383 574 767.263 574H763.051ZM787.138 548.8C787.258 548.8 787.354 548.848 787.426 548.944C787.522 549.016 787.57 549.112 787.57 549.232V552.76C787.57 552.88 787.522 552.988 787.426 553.084C787.354 553.156 787.258 553.192 787.138 553.192H781.666C781.546 553.192 781.486 553.252 781.486 553.372V573.568C781.486 573.688 781.438 573.796 781.342 573.892C781.27 573.964 781.174 574 781.054 574H776.842C776.722 574 776.614 573.964 776.518 573.892C776.446 573.796 776.41 573.688 776.41 573.568V553.372C776.41 553.252 776.35 553.192 776.23 553.192H770.938C770.818 553.192 770.71 553.156 770.614 553.084C770.542 552.988 770.506 552.88 770.506 552.76V549.232C770.506 549.112 770.542 549.016 770.614 548.944C770.71 548.848 770.818 548.8 770.938 548.8H787.138ZM805.764 552.724C805.764 552.844 805.716 552.952 805.62 553.048C805.548 553.12 805.452 553.156 805.332 553.156H795.684C795.564 553.156 795.504 553.216 795.504 553.336V558.952C795.504 559.072 795.564 559.132 795.684 559.132H801.696C801.816 559.132 801.912 559.18 801.984 559.276C802.08 559.348 802.128 559.444 802.128 559.564V563.056C802.128 563.176 802.08 563.284 801.984 563.38C801.912 563.452 801.816 563.488 801.696 563.488H795.684C795.564 563.488 795.504 563.548 795.504 563.668V569.464C795.504 569.584 795.564 569.644 795.684 569.644H805.332C805.452 569.644 805.548 569.692 805.62 569.788C805.716 569.86 805.764 569.956 805.764 570.076V573.568C805.764 573.688 805.716 573.796 805.62 573.892C805.548 573.964 805.452 574 805.332 574H790.86C790.74 574 790.632 573.964 790.536 573.892C790.464 573.796 790.428 573.688 790.428 573.568V549.232C790.428 549.112 790.464 549.016 790.536 548.944C790.632 548.848 790.74 548.8 790.86 548.8H805.332C805.452 548.8 805.548 548.848 805.62 548.944C805.716 549.016 805.764 549.112 805.764 549.232V552.724ZM831.357 552.724C831.357 552.844 831.309 552.952 831.213 553.048C831.141 553.12 831.045 553.156 830.925 553.156H821.277C821.157 553.156 821.097 553.216 821.097 553.336V558.952C821.097 559.072 821.157 559.132 821.277 559.132H827.289C827.409 559.132 827.505 559.18 827.577 559.276C827.673 559.348 827.721 559.444 827.721 559.564V563.056C827.721 563.176 827.673 563.284 827.577 563.38C827.505 563.452 827.409 563.488 827.289 563.488H821.277C821.157 563.488 821.097 563.548 821.097 563.668V569.464C821.097 569.584 821.157 569.644 821.277 569.644H830.925C831.045 569.644 831.141 569.692 831.213 569.788C831.309 569.86 831.357 569.956 831.357 570.076V573.568C831.357 573.688 831.309 573.796 831.213 573.892C831.141 573.964 831.045 574 830.925 574H816.453C816.333 574 816.225 573.964 816.129 573.892C816.057 573.796 816.021 573.688 816.021 573.568V549.232C816.021 549.112 816.057 549.016 816.129 548.944C816.225 548.848 816.333 548.8 816.453 548.8H830.925C831.045 548.8 831.141 548.848 831.213 548.944C831.309 549.016 831.357 549.112 831.357 549.232V552.724ZM848.268 549.088C848.364 548.896 848.532 548.8 848.772 548.8H852.948C853.068 548.8 853.164 548.848 853.236 548.944C853.332 549.016 853.38 549.112 853.38 549.232V573.568C853.38 573.688 853.332 573.796 853.236 573.892C853.164 573.964 853.068 574 852.948 574H848.736C848.616 574 848.508 573.964 848.412 573.892C848.34 573.796 848.304 573.688 848.304 573.568V557.584C848.304 557.488 848.28 557.44 848.232 557.44C848.184 557.416 848.136 557.44 848.088 557.512L844.776 562.984C844.68 563.176 844.512 563.272 844.272 563.272H843.444C843.204 563.272 843.036 563.176 842.94 562.984L839.628 557.512C839.58 557.44 839.532 557.416 839.484 557.44C839.436 557.44 839.412 557.488 839.412 557.584V573.568C839.412 573.688 839.364 573.796 839.268 573.892C839.196 573.964 839.1 574 838.98 574H834.768C834.648 574 834.54 573.964 834.444 573.892C834.372 573.796 834.336 573.688 834.336 573.568V549.232C834.336 549.112 834.372 549.016 834.444 548.944C834.54 548.848 834.648 548.8 834.768 548.8H838.944C839.184 548.8 839.352 548.896 839.448 549.088L843.768 556.18C843.84 556.324 843.912 556.324 843.984 556.18L848.268 549.088ZM872.138 574.288C870.506 574.288 869.066 573.964 867.818 573.316C866.57 572.668 865.598 571.744 864.902 570.544C864.23 569.344 863.894 567.952 863.894 566.368V556.36C863.894 554.8 864.23 553.432 864.902 552.256C865.598 551.056 866.57 550.132 867.818 549.484C869.066 548.836 870.506 548.512 872.138 548.512C873.77 548.512 875.21 548.836 876.458 549.484C877.706 550.108 878.666 550.996 879.338 552.148C880.034 553.3 880.382 554.644 880.382 556.18V556.36C880.382 556.48 880.334 556.588 880.238 556.684C880.166 556.78 880.07 556.828 879.95 556.828L875.738 557.008C875.45 557.008 875.306 556.876 875.306 556.612V556.144C875.306 555.16 875.018 554.368 874.442 553.768C873.866 553.168 873.098 552.868 872.138 552.868C871.178 552.868 870.41 553.168 869.834 553.768C869.258 554.368 868.97 555.16 868.97 556.144V566.692C868.97 567.676 869.258 568.468 869.834 569.068C870.41 569.644 871.178 569.932 872.138 569.932C873.098 569.932 873.866 569.644 874.442 569.068C875.018 568.468 875.306 567.676 875.306 566.692V566.224C875.306 565.96 875.45 565.828 875.738 565.828L879.95 566.008C880.07 566.008 880.166 566.056 880.238 566.152C880.334 566.224 880.382 566.32 880.382 566.44V566.548C880.382 568.084 880.034 569.44 879.338 570.616C878.666 571.792 877.706 572.704 876.458 573.352C875.21 573.976 873.77 574.288 872.138 574.288ZM891.547 574.324C889.891 574.324 888.427 573.988 887.155 573.316C885.907 572.644 884.935 571.696 884.239 570.472C883.543 569.248 883.195 567.82 883.195 566.188V556.612C883.195 555.004 883.543 553.588 884.239 552.364C884.935 551.14 885.907 550.192 887.155 549.52C888.427 548.848 889.891 548.512 891.547 548.512C893.203 548.512 894.667 548.848 895.939 549.52C897.211 550.192 898.195 551.14 898.891 552.364C899.587 553.588 899.935 555.004 899.935 556.612V566.188C899.935 567.82 899.587 569.248 898.891 570.472C898.195 571.696 897.211 572.644 895.939 573.316C894.667 573.988 893.203 574.324 891.547 574.324ZM891.547 569.968C892.555 569.968 893.359 569.644 893.959 568.996C894.559 568.324 894.859 567.46 894.859 566.404V556.468C894.859 555.388 894.559 554.524 893.959 553.876C893.359 553.204 892.555 552.868 891.547 552.868C890.563 552.868 889.771 553.204 889.171 553.876C888.571 554.524 888.271 555.388 888.271 556.468V566.404C888.271 567.46 888.571 568.324 889.171 568.996C889.771 569.644 890.563 569.968 891.547 569.968ZM915.698 549.232C915.698 549.112 915.734 549.016 915.806 548.944C915.902 548.848 916.01 548.8 916.13 548.8H920.306C920.426 548.8 920.522 548.848 920.594 548.944C920.69 549.016 920.738 549.112 920.738 549.232V573.568C920.738 573.688 920.69 573.796 920.594 573.892C920.522 573.964 920.426 574 920.306 574H915.914C915.674 574 915.506 573.892 915.41 573.676L908.534 559.024C908.486 558.952 908.438 558.916 908.39 558.916C908.342 558.916 908.318 558.964 908.318 559.06L908.354 573.568C908.354 573.688 908.306 573.796 908.21 573.892C908.138 573.964 908.042 574 907.922 574H903.746C903.626 574 903.518 573.964 903.422 573.892C903.35 573.796 903.314 573.688 903.314 573.568V549.232C903.314 549.112 903.35 549.016 903.422 548.944C903.518 548.848 903.626 548.8 903.746 548.8H908.102C908.342 548.8 908.51 548.908 908.606 549.124L915.482 563.776C915.53 563.848 915.578 563.884 915.626 563.884C915.674 563.884 915.698 563.836 915.698 563.74V549.232ZM932.109 574.288C930.453 574.288 929.001 574 927.753 573.424C926.505 572.824 925.533 571.996 924.837 570.94C924.165 569.86 923.829 568.624 923.829 567.232V566.296C923.829 566.176 923.865 566.08 923.937 566.008C924.033 565.912 924.141 565.864 924.261 565.864H928.401C928.521 565.864 928.617 565.912 928.689 566.008C928.785 566.08 928.833 566.176 928.833 566.296V566.98C928.833 567.82 929.145 568.528 929.769 569.104C930.393 569.656 931.233 569.932 932.289 569.932C933.225 569.932 933.933 569.692 934.413 569.212C934.917 568.732 935.169 568.12 935.169 567.376C935.169 566.824 935.013 566.356 934.701 565.972C934.389 565.564 933.945 565.192 933.369 564.856C932.817 564.496 931.953 564.016 930.777 563.416C929.337 562.696 928.161 562.024 927.249 561.4C926.337 560.776 925.557 559.972 924.909 558.988C924.261 558.004 923.937 556.816 923.937 555.424C923.937 554.032 924.261 552.82 924.909 551.788C925.581 550.732 926.517 549.928 927.717 549.376C928.917 548.8 930.285 548.512 931.821 548.512C933.429 548.512 934.857 548.824 936.105 549.448C937.353 550.048 938.325 550.9 939.021 552.004C939.717 553.108 940.065 554.38 940.065 555.82V556.54C940.065 556.66 940.017 556.768 939.921 556.864C939.849 556.936 939.753 556.972 939.633 556.972H935.493C935.373 556.972 935.265 556.936 935.169 556.864C935.097 556.768 935.061 556.66 935.061 556.54V555.892C935.061 555.028 934.761 554.308 934.161 553.732C933.561 553.156 932.745 552.868 931.713 552.868C930.849 552.868 930.165 553.096 929.661 553.552C929.181 553.984 928.941 554.596 928.941 555.388C928.941 555.94 929.085 556.42 929.373 556.828C929.661 557.236 930.105 557.632 930.705 558.016C931.305 558.376 932.217 558.856 933.441 559.456L934.197 559.888C935.589 560.656 936.669 561.328 937.437 561.904C938.229 562.456 938.889 563.164 939.417 564.028C939.945 564.892 940.209 565.936 940.209 567.16C940.209 569.344 939.465 571.084 937.977 572.38C936.513 573.652 934.557 574.288 932.109 574.288ZM958.666 548.8C958.786 548.8 958.882 548.848 958.954 548.944C959.05 549.016 959.098 549.112 959.098 549.232V552.76C959.098 552.88 959.05 552.988 958.954 553.084C958.882 553.156 958.786 553.192 958.666 553.192H953.194C953.074 553.192 953.014 553.252 953.014 553.372V573.568C953.014 573.688 952.966 573.796 952.87 573.892C952.798 573.964 952.702 574 952.582 574H948.37C948.25 574 948.142 573.964 948.046 573.892C947.974 573.796 947.938 573.688 947.938 573.568V553.372C947.938 553.252 947.878 553.192 947.758 553.192H942.466C942.346 553.192 942.238 553.156 942.142 553.084C942.07 552.988 942.034 552.88 942.034 552.76V549.232C942.034 549.112 942.07 549.016 942.142 548.944C942.238 548.848 942.346 548.8 942.466 548.8H958.666ZM973.799 574C973.535 574 973.367 573.88 973.295 573.64L969.659 563.704C969.611 563.608 969.551 563.56 969.479 563.56H967.211C967.091 563.56 967.031 563.62 967.031 563.74V573.568C967.031 573.688 966.983 573.796 966.887 573.892C966.815 573.964 966.719 574 966.599 574H962.387C962.267 574 962.159 573.964 962.063 573.892C961.991 573.796 961.955 573.688 961.955 573.568V549.232C961.955 549.112 961.991 549.016 962.063 548.944C962.159 548.848 962.267 548.8 962.387 548.8H971.171C972.587 548.8 973.847 549.124 974.951 549.772C976.055 550.396 976.907 551.284 977.507 552.436C978.107 553.588 978.407 554.908 978.407 556.396C978.407 557.932 978.071 559.264 977.399 560.392C976.727 561.52 975.779 562.36 974.555 562.912C974.435 562.96 974.399 563.044 974.447 563.164L978.551 573.496C978.575 573.544 978.587 573.604 978.587 573.676C978.587 573.892 978.455 574 978.191 574H973.799ZM967.211 553.156C967.091 553.156 967.031 553.216 967.031 553.336V559.492C967.031 559.612 967.091 559.672 967.211 559.672H970.343C971.231 559.672 971.951 559.384 972.503 558.808C973.055 558.208 973.331 557.416 973.331 556.432C973.331 555.424 973.055 554.632 972.503 554.056C971.951 553.456 971.231 553.156 970.343 553.156H967.211ZM989.566 574.288C987.934 574.288 986.494 573.952 985.246 573.28C983.998 572.608 983.026 571.672 982.33 570.472C981.658 569.248 981.322 567.844 981.322 566.26V549.232C981.322 549.112 981.358 549.016 981.43 548.944C981.526 548.848 981.634 548.8 981.754 548.8H985.966C986.086 548.8 986.182 548.848 986.254 548.944C986.35 549.016 986.398 549.112 986.398 549.232V566.512C986.398 567.544 986.686 568.372 987.262 568.996C987.838 569.62 988.606 569.932 989.566 569.932C990.526 569.932 991.294 569.62 991.87 568.996C992.446 568.372 992.734 567.544 992.734 566.512V549.232C992.734 549.112 992.77 549.016 992.842 548.944C992.938 548.848 993.046 548.8 993.166 548.8H997.378C997.498 548.8 997.594 548.848 997.666 548.944C997.762 549.016 997.81 549.112 997.81 549.232V566.26C997.81 567.844 997.462 569.248 996.766 570.472C996.094 571.672 995.134 572.608 993.886 573.28C992.638 573.952 991.198 574.288 989.566 574.288ZM1017.35 556.468C1017.35 556.564 1017.3 556.648 1017.21 556.72C1017.13 556.792 1017.04 556.828 1016.92 556.828L1012.71 557.008C1012.42 557.008 1012.27 556.876 1012.27 556.612V556.144C1012.27 555.16 1011.99 554.368 1011.41 553.768C1010.83 553.168 1010.07 552.868 1009.11 552.868C1008.15 552.868 1007.38 553.168 1006.8 553.768C1006.23 554.368 1005.94 555.16 1005.94 556.144V566.692C1005.94 567.676 1006.23 568.468 1006.8 569.068C1007.38 569.644 1008.15 569.932 1009.11 569.932C1010.07 569.932 1010.83 569.644 1011.41 569.068C1011.99 568.468 1012.27 567.676 1012.27 566.692V566.224C1012.27 565.96 1012.42 565.828 1012.71 565.828L1016.92 566.008C1017.04 566.008 1017.13 566.056 1017.21 566.152C1017.3 566.224 1017.35 566.32 1017.35 566.44V566.548C1017.35 568.636 1016.75 570.364 1015.55 571.732C1014.35 573.076 1012.72 573.892 1010.65 574.18C1010.51 574.228 1010.49 574.3 1010.58 574.396C1011.54 575.428 1012.02 576.472 1012.02 577.528C1012.02 577.84 1011.99 578.14 1011.91 578.428C1011.72 579.244 1011.33 579.82 1010.73 580.156C1010.13 580.492 1009.43 580.66 1008.64 580.66C1008.01 580.66 1007.37 580.564 1006.69 580.372C1006.45 580.276 1006.35 580.096 1006.37 579.832L1006.62 578.104C1006.65 577.84 1006.81 577.744 1007.13 577.816C1007.32 577.864 1007.47 577.888 1007.59 577.888C1007.86 577.888 1008.09 577.816 1008.28 577.672C1008.47 577.528 1008.6 577.312 1008.67 577.024C1008.7 576.952 1008.71 576.856 1008.71 576.736C1008.71 576.352 1008.55 575.932 1008.24 575.476C1007.95 575.02 1007.53 574.576 1006.98 574.144L1006.77 574.036C1004.94 573.604 1003.5 572.716 1002.45 571.372C1001.39 570.028 1000.86 568.36 1000.86 566.368V556.36C1000.86 554.8 1001.2 553.432 1001.87 552.256C1002.57 551.056 1003.54 550.132 1004.79 549.484C1006.03 548.836 1007.47 548.512 1009.11 548.512C1010.74 548.512 1012.18 548.836 1013.43 549.484C1014.67 550.108 1015.63 550.996 1016.31 552.148C1017 553.3 1017.35 554.644 1017.35 556.18V556.468ZM1033.46 574C1033.19 574 1033.03 573.88 1032.95 573.64L1032.13 570.112C1032.1 570.016 1032.04 569.968 1031.95 569.968H1025.21C1025.12 569.968 1025.06 570.016 1025.03 570.112L1024.21 573.64C1024.13 573.88 1023.98 574 1023.74 574H1019.38C1019.07 574 1018.95 573.844 1019.02 573.532L1025.5 549.16C1025.57 548.92 1025.74 548.8 1026.01 548.8H1031.23C1031.49 548.8 1031.66 548.92 1031.73 549.16L1038.21 573.532L1038.25 573.676C1038.25 573.892 1038.11 574 1037.85 574H1033.46ZM1026.01 565.828C1025.98 565.9 1025.99 565.96 1026.04 566.008C1026.09 566.032 1026.14 566.044 1026.19 566.044H1030.94C1030.99 566.044 1031.03 566.032 1031.08 566.008C1031.13 565.96 1031.14 565.9 1031.12 565.828L1028.63 555.388C1028.61 555.292 1028.57 555.244 1028.53 555.244C1028.48 555.244 1028.44 555.292 1028.42 555.388L1026.01 565.828ZM1030.94 546.424C1030.53 546.424 1030.17 546.376 1029.86 546.28C1029.57 546.16 1029.2 545.992 1028.74 545.776C1028.62 545.704 1028.44 545.608 1028.2 545.488C1027.96 545.368 1027.76 545.284 1027.59 545.236C1027.42 545.188 1027.25 545.164 1027.09 545.164C1026.46 545.164 1025.93 545.428 1025.5 545.956C1025.36 546.1 1025.24 546.172 1025.14 546.172C1025.07 546.172 1024.99 546.124 1024.89 546.028L1023.41 544.732C1023.22 544.54 1023.17 544.336 1023.27 544.12C1023.63 543.376 1024.11 542.8 1024.71 542.392C1025.33 541.984 1026.02 541.78 1026.76 541.78C1027.19 541.78 1027.59 541.852 1027.95 541.996C1028.31 542.116 1028.74 542.308 1029.25 542.572C1029.34 542.62 1029.5 542.716 1029.71 542.86C1029.93 542.98 1030.12 543.076 1030.29 543.148C1030.48 543.196 1030.67 543.22 1030.87 543.22C1031.54 543.22 1032.04 542.968 1032.38 542.464C1032.5 542.296 1032.62 542.212 1032.74 542.212C1032.81 542.212 1032.89 542.26 1032.99 542.356L1034.39 543.616C1034.59 543.808 1034.62 544.024 1034.5 544.264C1034.14 544.984 1033.64 545.524 1032.99 545.884C1032.37 546.244 1031.68 546.424 1030.94 546.424ZM1048.13 574.324C1046.48 574.324 1045.01 573.988 1043.74 573.316C1042.49 572.644 1041.52 571.696 1040.82 570.472C1040.13 569.248 1039.78 567.82 1039.78 566.188V556.612C1039.78 555.004 1040.13 553.588 1040.82 552.364C1041.52 551.14 1042.49 550.192 1043.74 549.52C1045.01 548.848 1046.48 548.512 1048.13 548.512C1049.79 548.512 1051.25 548.848 1052.52 549.52C1053.8 550.192 1054.78 551.14 1055.48 552.364C1056.17 553.588 1056.52 555.004 1056.52 556.612V566.188C1056.52 567.82 1056.17 569.248 1055.48 570.472C1054.78 571.696 1053.8 572.644 1052.52 573.316C1051.25 573.988 1049.79 574.324 1048.13 574.324ZM1048.13 569.968C1049.14 569.968 1049.94 569.644 1050.54 568.996C1051.14 568.324 1051.44 567.46 1051.44 566.404V556.468C1051.44 555.388 1051.14 554.524 1050.54 553.876C1049.94 553.204 1049.14 552.868 1048.13 552.868C1047.15 552.868 1046.36 553.204 1045.76 553.876C1045.16 554.524 1044.86 555.388 1044.86 556.468V566.404C1044.86 567.46 1045.16 568.324 1045.76 568.996C1046.36 569.644 1047.15 569.968 1048.13 569.968Z" fill="white"/>
<path d="M717 576.634V540.049H667V576.634H685.293V580.293H681.024V583.951H702.976V580.293H698.707V576.634H717V576.634ZM695.049 580.293H688.951V576.634H695.049V580.293ZM670.658 572.976V543.707H713.341V572.976H670.658Z" fill="#F24975"/>
<path d="M700.001 551.56L697.414 554.147L701.608 558.341L697.414 562.536L700.001 565.123L706.782 558.341L700.001 551.56Z" fill="#F24975"/>
<path d="M686.586 554.147L683.999 551.56L677.218 558.341L683.999 565.123L686.586 562.536L682.392 558.341L686.586 554.147Z" fill="#F24975"/>
<path d="M692.313 547.976L687.948 568.707H691.687L696.052 547.976H692.313Z" fill="#F24975"/>
<rect x="-41" y="880" width="1836" height="751" fill="#1C222B"/>
<path d="M704.132 251.943C704.132 252.045 704.056 252.097 703.902 252.097C702.319 252.353 700.659 252.558 698.923 252.712C697.237 252.814 695.629 252.994 694.096 253.25H694.02C693.764 256.481 693.611 259.712 693.56 262.942C693.509 266.122 693.458 269.173 693.407 272.096C692.385 272.199 691.16 272.276 689.73 272.327C688.351 272.378 686.972 272.404 685.593 272.404C684.214 272.404 682.988 272.378 681.915 272.327C680.894 272.276 680.281 272.199 680.077 272.096L680 272.019C680 268.942 680 266.071 680 263.404C680 260.686 680 258.071 680 255.558C680.051 253.045 680.077 250.533 680.077 248.02C680.077 245.456 680.077 242.763 680.077 239.943C680.128 237.123 680.153 234.097 680.153 230.866C680.153 227.584 680.153 223.943 680.153 219.944V219.867C681.021 219.713 682.273 219.559 683.907 219.405C685.541 219.251 687.38 219.097 689.423 218.944C691.517 218.79 693.713 218.687 696.012 218.636C698.361 218.533 700.659 218.508 702.906 218.559C705.154 218.559 707.273 218.661 709.265 218.867C711.257 219.072 712.968 219.354 714.398 219.713C714.398 220.379 714.398 221.226 714.398 222.251C714.449 223.277 714.475 224.354 714.475 225.482C714.475 226.559 714.475 227.61 714.475 228.636C714.475 229.61 714.449 230.43 714.398 231.097C713.019 231.2 711.461 231.302 709.725 231.405C708.039 231.507 706.277 231.61 704.439 231.712C702.651 231.764 700.838 231.841 698.999 231.943C697.212 232.046 695.526 232.174 693.943 232.328C693.381 233.661 693.151 234.943 693.254 236.174C693.356 237.405 693.637 238.43 694.096 239.251C694.147 239.302 694.198 239.328 694.25 239.328C694.965 239.43 695.756 239.507 696.624 239.558C697.544 239.558 698.438 239.558 699.306 239.558C700.174 239.558 701.017 239.533 701.834 239.481C702.651 239.43 703.341 239.379 703.902 239.328C704.056 239.687 704.132 240.379 704.132 241.405C704.183 242.43 704.183 243.584 704.132 244.866C704.081 246.097 704.03 247.353 703.979 248.635C703.979 249.917 704.03 251.02 704.132 251.943Z" fill="#7FBCA3"/>
<path d="M745.053 221.943C746.534 223.277 747.581 224.841 748.194 226.636C748.551 227.405 748.807 228.2 748.96 229.02C749.164 229.789 749.318 230.584 749.42 231.405C749.522 232.687 749.573 233.969 749.573 235.251C749.624 236.482 749.624 237.738 749.573 239.02C749.42 241.738 749.369 244.379 749.42 246.943C749.471 249.507 749.394 252.122 749.19 254.789L748.96 257.327C748.858 259.122 748.577 260.943 748.117 262.789C747.658 264.583 746.968 266.224 746.049 267.712C745.181 268.942 744.031 269.942 742.601 270.711C741.222 271.429 739.741 271.994 738.158 272.404C736.728 272.814 735.272 273.07 733.791 273.173C732.361 273.276 730.906 273.276 729.424 273.173C728.352 273.07 727.305 272.917 726.283 272.711C725.313 272.558 724.368 272.276 723.449 271.865C722.581 271.455 721.789 270.942 721.074 270.327C720.359 269.66 719.772 268.814 719.312 267.788C718.597 266.506 718.112 265.148 717.856 263.712C717.652 262.225 717.524 260.737 717.473 259.25C717.32 255.25 717.141 251.25 716.937 247.251C716.784 243.199 716.835 239.148 717.09 235.097C717.141 232.789 717.422 230.482 717.933 228.174C718.495 225.815 719.567 223.738 721.151 221.943C721.661 221.431 722.249 220.969 722.913 220.559C724.598 219.738 726.411 219.149 728.352 218.79C730.344 218.379 732.31 218.226 734.251 218.328C736.243 218.431 738.158 218.79 739.997 219.405C741.886 219.969 743.572 220.815 745.053 221.943ZM739.997 249.097V245.404L739.843 240.174C739.843 240.123 739.792 239.61 739.69 238.635C739.639 237.61 739.588 236.661 739.537 235.789C739.435 234.353 739.026 233.046 738.311 231.866C737.647 230.687 736.728 229.815 735.553 229.251C734.532 228.841 733.485 228.764 732.412 229.02C731.34 229.277 730.395 229.713 729.578 230.328C727.79 231.712 726.59 233.482 725.977 235.635C725.568 237.584 725.313 239.635 725.211 241.789C725.16 243.943 725.185 246.097 725.287 248.251C725.543 250.045 725.722 251.891 725.824 253.789C725.926 255.635 726.232 257.404 726.743 259.096C727.254 260.122 727.994 260.917 728.965 261.481C729.935 262.045 730.982 262.378 732.106 262.481C733.229 262.532 734.353 262.378 735.477 262.019C736.6 261.609 737.545 260.968 738.311 260.096C738.771 259.481 739.103 258.994 739.307 258.635C739.511 258.225 739.639 257.789 739.69 257.327C739.741 256.866 739.741 256.327 739.69 255.712C739.69 255.045 739.741 254.173 739.843 253.097C739.895 252.071 739.92 251.174 739.92 250.404C739.971 249.635 739.997 249.199 739.997 249.097Z" fill="#7FBCA3"/>
<path d="M788.445 265.865C789.569 267.814 790.513 269.84 791.28 271.942H791.356C789.569 271.942 787.577 272.019 785.381 272.173C783.184 272.276 780.937 272.25 778.639 272.096H778.562C778.051 270.917 777.413 269.506 776.647 267.865C775.881 266.224 775.038 264.507 774.119 262.712C773.199 260.917 772.204 259.148 771.131 257.404C770.058 255.661 768.986 254.122 767.913 252.789L767.76 252.558C767.607 253.738 767.53 255.199 767.53 256.943C767.53 258.635 767.556 260.404 767.607 262.25C767.709 264.045 767.811 265.763 767.913 267.404C768.015 269.045 768.092 270.353 768.143 271.327C767.275 271.686 766.126 271.917 764.696 272.019C763.317 272.122 761.938 272.173 760.559 272.173C759.18 272.224 757.928 272.224 756.805 272.173C755.732 272.122 755.068 272.122 754.813 272.173C754.915 272.173 754.992 271.481 755.043 270.096C755.094 268.66 755.119 266.789 755.119 264.481C755.119 262.173 755.119 259.532 755.119 256.558C755.119 253.532 755.094 250.43 755.043 247.251C755.043 244.02 754.992 240.84 754.89 237.712C754.839 234.533 754.787 231.636 754.736 229.02C754.685 226.354 754.609 224.097 754.507 222.251C754.455 220.354 754.379 219.072 754.277 218.405C757.137 217.995 760.278 217.61 763.7 217.251C767.122 216.892 770.697 216.918 774.425 217.328C777.439 217.482 780.145 218.354 782.546 219.944C784.946 221.533 786.811 223.508 788.138 225.866C789.466 228.225 790.156 230.841 790.207 233.712C790.309 236.533 789.569 239.276 787.985 241.943C787.015 243.789 785.712 245.328 784.078 246.558C782.495 247.789 780.477 248.481 778.026 248.635H777.643V248.712C778.715 250.609 779.89 252.507 781.167 254.404C782.444 256.25 783.695 258.122 784.921 260.019C786.147 261.917 787.321 263.866 788.445 265.865ZM770.748 228.02C769.011 228.072 767.249 228.456 765.462 229.174C765.513 229.841 765.538 230.61 765.538 231.482C765.59 232.302 765.615 233.148 765.615 234.02C765.615 234.892 765.615 235.738 765.615 236.558C765.666 237.379 765.743 238.071 765.845 238.635H765.921C767.096 238.738 768.373 238.815 769.752 238.866C771.131 238.917 772.433 238.84 773.659 238.635C774.63 238.43 775.37 237.943 775.881 237.174C776.443 236.353 776.775 235.482 776.877 234.559C776.979 233.584 776.877 232.636 776.57 231.712C776.264 230.738 775.753 229.969 775.038 229.405C773.914 228.379 772.484 227.918 770.748 228.02Z" fill="#7FBCA3"/>
<path d="M826.641 233.174C826.845 237.943 826.82 242.789 826.565 247.712L826.335 272.25C825.569 272.147 824.726 272.096 823.807 272.096C822.887 272.096 821.968 272.096 821.049 272.096C820.129 272.096 819.235 272.122 818.367 272.173C817.55 272.173 816.835 272.173 816.222 272.173C816.12 269.968 816.043 267.583 815.992 265.019C815.992 262.455 815.967 259.84 815.916 257.173C815.916 254.507 815.839 251.891 815.686 249.327C815.584 246.763 815.405 244.404 815.15 242.251C814.792 242.815 814.384 243.712 813.924 244.943C813.464 246.122 813.005 247.353 812.545 248.635C812.085 249.917 811.651 251.045 811.242 252.02C810.834 252.994 810.527 253.481 810.323 253.481C810.068 253.481 809.761 253.225 809.404 252.712C809.097 252.148 808.765 251.456 808.408 250.635C808.101 249.815 807.769 248.943 807.412 248.02C807.054 247.097 806.748 246.251 806.493 245.481C806.237 244.712 806.007 244.071 805.803 243.558C805.65 243.046 805.573 242.789 805.573 242.789C805.165 247.609 805.012 252.481 805.114 257.404C805.267 262.327 805.497 267.173 805.803 271.942C804.169 272.199 802.381 272.301 800.44 272.25C798.5 272.199 796.712 272.173 795.078 272.173C794.976 272.173 794.899 272.096 794.848 271.942C794.797 271.737 794.746 271.25 794.695 270.481C794.644 269.712 794.592 268.558 794.541 267.019C794.541 265.43 794.541 263.353 794.541 260.789C794.541 258.225 794.541 255.045 794.541 251.25C794.592 247.456 794.618 242.943 794.618 237.712C794.669 232.482 794.72 226.379 794.771 219.405C795.435 219.2 796.201 219.072 797.07 219.02C797.938 218.969 798.832 218.969 799.751 219.02C800.67 219.02 801.59 219.046 802.509 219.097C803.428 219.097 804.322 219.072 805.19 219.02H805.267C805.727 219.533 806.186 220.328 806.646 221.405C807.106 222.431 807.54 223.533 807.948 224.713C808.357 225.892 808.74 227.02 809.097 228.097C809.506 229.174 809.915 230.02 810.323 230.636C810.476 230.789 810.63 230.866 810.783 230.866C810.936 230.918 811.166 230.43 811.472 229.405C811.83 228.379 812.187 227.2 812.545 225.866C812.953 224.482 813.388 223.123 813.847 221.79C814.358 220.456 814.843 219.482 815.303 218.867C815.66 218.918 816.299 218.918 817.218 218.867C818.188 218.815 819.21 218.764 820.283 218.713C821.406 218.661 822.53 218.636 823.653 218.636C824.828 218.585 825.824 218.559 826.641 218.559C826.437 223.482 826.437 228.354 826.641 233.174Z" fill="#7FBCA3"/>
<path d="M863.336 220.02C864.306 220.123 865.098 220.354 865.711 220.713C866.017 227.277 866.119 233.918 866.017 240.635C865.915 247.302 865.506 253.943 864.791 260.558C864.383 263.942 863.106 266.814 860.961 269.173C858.816 271.532 855.905 272.891 852.227 273.25C850.082 273.455 847.86 273.352 845.562 272.942C843.264 272.583 841.17 271.917 839.28 270.942C837.441 269.917 835.884 268.583 834.607 266.942C833.381 265.25 832.717 263.224 832.615 260.866C832.615 254.097 832.692 247.276 832.845 240.405C832.998 233.533 833.024 226.713 832.921 219.944L832.845 219.867H832.921C833.688 219.867 834.53 219.841 835.45 219.79C836.42 219.738 837.39 219.713 838.361 219.713C839.331 219.713 840.276 219.764 841.195 219.867C842.115 219.918 842.957 220.046 843.723 220.251V220.328C843.162 232.738 843.391 245.328 844.413 258.096C844.77 259.327 845.409 260.225 846.328 260.789C847.299 261.353 848.295 261.609 849.316 261.558C850.337 261.507 851.282 261.148 852.151 260.481C853.019 259.814 853.581 258.891 853.836 257.712C854.091 251.558 854.219 245.302 854.219 238.943C854.27 232.584 854.372 226.431 854.526 220.482C855.189 220.431 856.032 220.354 857.054 220.251C858.126 220.097 859.199 219.995 860.271 219.944C861.344 219.892 862.365 219.918 863.336 220.02Z" fill="#7FBCA3"/>
<path d="M903.394 263.789C903.394 264.301 903.419 264.763 903.471 265.173C903.573 267.019 903.624 268.429 903.624 269.404C903.624 270.327 903.547 271.019 903.394 271.481C903.292 271.891 903.088 272.122 902.781 272.173C902.475 272.173 902.04 272.173 901.479 272.173C900.917 272.122 900.176 272.122 899.257 272.173C898.389 272.224 896.882 272.276 894.737 272.327C892.643 272.378 889.732 272.404 886.003 272.404C882.326 272.404 877.397 272.352 871.218 272.25V270.865C871.371 267.019 871.498 263.558 871.601 260.481C871.703 257.353 871.754 254.455 871.754 251.789C871.805 249.071 871.83 246.456 871.83 243.943C871.83 241.43 871.805 238.866 871.754 236.251C871.703 233.635 871.652 230.866 871.601 227.943C871.55 224.969 871.499 221.687 871.447 218.097C871.958 217.892 872.75 217.738 873.822 217.636C874.895 217.482 876.044 217.405 877.27 217.405C878.496 217.405 879.696 217.482 880.871 217.636C882.045 217.79 882.99 218.02 883.705 218.328C883.603 221.661 883.552 225.097 883.552 228.636C883.603 232.123 883.654 235.635 883.705 239.174C883.756 242.712 883.782 246.251 883.782 249.789C883.833 253.276 883.833 256.661 883.782 259.943V260.019C884.139 259.917 884.803 259.891 885.774 259.943C886.795 259.943 887.97 259.968 889.298 260.019C890.626 260.071 892.03 260.148 893.511 260.25C895.043 260.301 896.473 260.353 897.801 260.404C899.18 260.455 900.381 260.507 901.402 260.558C902.475 260.558 903.215 260.532 903.624 260.481C903.624 261.045 903.598 261.609 903.547 262.173C903.496 262.686 903.445 263.224 903.394 263.789Z" fill="#7FBCA3"/>
<path d="M930.662 241.635C931.02 243.122 931.301 244.302 931.505 245.174L937.251 272.096V272.173C935.719 272.481 934.033 272.583 932.195 272.481C930.356 272.429 928.619 272.224 926.985 271.865H926.909C926.602 271.045 926.296 270.07 925.989 268.942C925.734 267.814 925.453 266.66 925.146 265.481C924.891 264.301 924.61 263.173 924.304 262.096C923.997 261.019 923.665 260.096 923.308 259.327C922.644 259.225 922.133 259.173 921.776 259.173C921.418 259.173 921.086 259.173 920.78 259.173C920.524 259.173 920.218 259.199 919.86 259.25C919.554 259.25 919.12 259.25 918.558 259.25C918.2 260.071 917.894 261.045 917.639 262.173C917.434 263.25 917.205 264.404 916.949 265.635C916.745 266.814 916.515 267.968 916.26 269.096C916.004 270.224 915.647 271.224 915.187 272.096C915.136 272.096 915.085 272.122 915.034 272.173C915.034 272.173 915.008 272.173 914.957 272.173C914.549 272.276 913.527 272.276 911.893 272.173C910.259 272.07 907.705 272.045 904.232 272.096C904.181 272.096 904.13 272.07 904.079 272.019C904.181 271.66 904.36 270.66 904.615 269.019C904.87 267.378 905.228 265.25 905.687 262.635C906.147 260.019 906.683 257.02 907.296 253.635C907.96 250.199 908.726 246.558 909.595 242.712C910.463 238.866 911.408 234.866 912.429 230.712C913.451 226.559 914.574 222.431 915.8 218.328C916.158 218.277 916.541 218.251 916.949 218.251C917.358 218.251 917.894 218.251 918.558 218.251C919.222 218.251 920.065 218.251 921.086 218.251C922.159 218.2 923.538 218.097 925.223 217.944C925.376 218.61 925.606 219.636 925.913 221.02C926.27 222.354 926.628 223.892 926.985 225.636C927.394 227.328 927.802 229.148 928.211 231.097C928.671 233.046 929.105 234.918 929.513 236.712C929.922 238.507 930.305 240.148 930.662 241.635ZM920.78 250.25C921.75 250.199 922.72 250.174 923.691 250.174C923.18 245.763 922.72 242.328 922.312 239.866C921.954 237.405 921.622 235.738 921.316 234.866C921.061 233.994 920.78 233.815 920.473 234.328C920.218 234.789 919.963 235.764 919.707 237.251C919.503 238.738 919.247 240.61 918.941 242.866C918.686 245.122 918.379 247.558 918.022 250.174C918.89 250.225 919.809 250.25 920.78 250.25Z" fill="#7FBCA3"/>
<path d="M971.311 272.404C970.954 272.506 970.341 272.558 969.473 272.558C968.451 272.558 967.277 272.481 965.949 272.327C964.621 272.224 963.446 272.173 962.425 272.173C960.739 268.378 959.054 264.712 957.368 261.173C955.734 257.584 954.329 254.148 953.155 250.866L952.389 248.558C952.184 247.994 951.98 247.481 951.776 247.02C951.623 246.507 951.495 246.251 951.393 246.251C951.342 246.251 951.265 246.866 951.163 248.097C951.112 249.327 951.061 250.891 951.01 252.789C950.959 254.686 950.908 256.789 950.856 259.096C950.856 261.404 950.856 263.635 950.856 265.789C950.856 266.968 950.856 268.122 950.856 269.25C950.856 270.327 950.882 271.301 950.933 272.173C950.371 272.327 949.809 272.429 949.248 272.481C948.686 272.532 948.124 272.558 947.562 272.558C946.336 272.558 945.085 272.481 943.808 272.327C942.583 272.173 941.382 272.096 940.208 272.096V266.712C940.208 261.84 940.157 257.199 940.054 252.789C940.003 248.379 939.978 243.763 939.978 238.943C939.978 235.405 940.029 231.918 940.131 228.482C940.233 224.995 940.412 221.61 940.667 218.328C941.178 218.226 941.714 218.149 942.276 218.097C942.889 218.046 943.502 218.02 944.115 218.02C944.421 218.02 944.932 218.046 945.647 218.097C946.362 218.097 947.077 218.149 947.792 218.251C948.507 218.303 949.12 218.379 949.631 218.482C950.192 218.585 950.473 218.687 950.473 218.79C950.831 219.713 951.163 220.482 951.469 221.097C951.776 221.713 952.057 222.302 952.312 222.867C952.618 223.431 952.925 224.072 953.231 224.79C953.589 225.456 953.997 226.328 954.457 227.405C954.559 227.661 954.789 228.148 955.147 228.866C955.504 229.584 955.913 230.43 956.372 231.405C956.832 232.328 957.317 233.328 957.828 234.405C958.339 235.43 958.798 236.379 959.207 237.251C959.667 238.071 960.05 238.789 960.356 239.405C960.663 239.969 960.841 240.251 960.892 240.251C961.046 240.148 961.173 239.635 961.275 238.712C961.378 237.789 961.429 236.892 961.429 236.02C961.429 233.969 961.378 232.071 961.275 230.328C961.224 228.533 961.199 226.713 961.199 224.866C961.199 223.79 961.199 222.713 961.199 221.636C961.25 220.508 961.301 219.303 961.352 218.02C963.089 217.713 964.927 217.559 966.868 217.559C968.758 217.559 970.443 217.713 971.924 218.02V242.789C971.975 244.943 972.001 247.122 972.001 249.327C972.001 251.532 972.001 253.738 972.001 255.943C972.001 257.43 971.975 258.866 971.924 260.25C971.924 261.635 971.924 263.045 971.924 264.481C971.924 265.506 971.924 266.532 971.924 267.558C971.975 268.583 972.001 269.609 972.001 270.635V272.173C971.899 272.224 971.669 272.301 971.311 272.404Z" fill="#7FBCA3"/>
<path d="M1001.58 220.713C1003.11 221.892 1004.33 223.225 1005.25 224.713C1006.38 226.456 1007.3 228.277 1008.01 230.174C1008.78 232.02 1009.39 233.969 1009.85 236.02C1010.11 236.841 1010.26 237.661 1010.31 238.482C1010.41 239.251 1010.49 240.046 1010.54 240.866C1010.44 243.276 1010.34 245.712 1010.23 248.174C1010.18 250.584 1009.93 252.968 1009.47 255.327C1009.47 255.379 1009.44 255.404 1009.39 255.404C1009.39 255.404 1009.39 255.43 1009.39 255.481C1008.37 258.507 1006.96 261.378 1005.18 264.096C1003.44 266.814 1001.6 269.378 999.661 271.788C996.29 271.891 992.894 271.968 989.472 272.019C986.05 272.019 982.73 272.019 979.512 272.019C979.512 272.019 979.487 272.045 979.436 272.096C978.874 268.045 978.516 263.866 978.363 259.558C978.21 255.199 978.133 250.789 978.133 246.327C978.133 241.866 978.159 237.379 978.21 232.866C978.312 228.302 978.312 223.79 978.21 219.328C978.261 219.277 978.287 219.226 978.287 219.174C978.338 219.123 978.389 219.072 978.44 219.02C979.87 218.661 981.351 218.431 982.883 218.328C984.466 218.174 986.05 218.123 987.633 218.174C989.216 218.174 990.774 218.2 992.306 218.251C993.889 218.303 995.422 218.303 996.903 218.251C998.537 218.661 1000.09 219.482 1001.58 220.713ZM997.133 254.02C997.541 253.558 997.899 253.097 998.205 252.635C999.073 251.302 999.686 249.84 1000.04 248.251C1000.45 246.661 1000.45 244.917 1000.04 243.02C999.891 242.251 999.712 241.456 999.508 240.635C999.303 239.764 998.997 238.943 998.588 238.174C998.231 237.405 997.771 236.738 997.209 236.174C996.647 235.559 995.932 235.097 995.064 234.789C994.196 234.687 993.251 234.635 992.23 234.635C991.208 234.584 990.238 234.661 989.318 234.866H989.089V235.174C989.191 236.558 989.242 238.046 989.242 239.635C989.242 241.225 989.216 242.892 989.165 244.635C989.114 246.327 989.089 248.071 989.089 249.866C989.089 251.609 989.14 253.353 989.242 255.096C989.804 255.609 990.57 255.84 991.54 255.789C992.562 255.738 993.532 255.661 994.451 255.558C994.707 255.609 994.936 255.584 995.141 255.481C995.345 255.327 995.575 255.199 995.83 255.096C996.341 254.789 996.775 254.43 997.133 254.02Z" fill="#7FBCA3"/>
<path d="M1042.44 221.943C1043.92 223.277 1044.97 224.841 1045.58 226.636C1045.94 227.405 1046.2 228.2 1046.35 229.02C1046.55 229.789 1046.71 230.584 1046.81 231.405C1046.91 232.687 1046.96 233.969 1046.96 235.251C1047.01 236.482 1047.01 237.738 1046.96 239.02C1046.81 241.738 1046.76 244.379 1046.81 246.943C1046.86 249.507 1046.78 252.122 1046.58 254.789L1046.35 257.327C1046.25 259.122 1045.97 260.943 1045.51 262.789C1045.05 264.583 1044.36 266.224 1043.44 267.712C1042.57 268.942 1041.42 269.942 1039.99 270.711C1038.61 271.429 1037.13 271.994 1035.55 272.404C1034.12 272.814 1032.66 273.07 1031.18 273.173C1029.75 273.276 1028.29 273.276 1026.81 273.173C1025.74 273.07 1024.69 272.917 1023.67 272.711C1022.7 272.558 1021.76 272.276 1020.84 271.865C1019.97 271.455 1019.18 270.942 1018.46 270.327C1017.75 269.66 1017.16 268.814 1016.7 267.788C1015.99 266.506 1015.5 265.148 1015.25 263.712C1015.04 262.225 1014.91 260.737 1014.86 259.25C1014.71 255.25 1014.53 251.25 1014.33 247.251C1014.17 243.199 1014.22 239.148 1014.48 235.097C1014.53 232.789 1014.81 230.482 1015.32 228.174C1015.88 225.815 1016.96 223.738 1018.54 221.943C1019.05 221.431 1019.64 220.969 1020.3 220.559C1021.99 219.738 1023.8 219.149 1025.74 218.79C1027.73 218.379 1029.7 218.226 1031.64 218.328C1033.63 218.431 1035.55 218.79 1037.39 219.405C1039.28 219.969 1040.96 220.815 1042.44 221.943ZM1037.39 249.097V245.404L1037.23 240.174C1037.23 240.123 1037.18 239.61 1037.08 238.635C1037.03 237.61 1036.98 236.661 1036.93 235.789C1036.82 234.353 1036.42 233.046 1035.7 231.866C1035.04 230.687 1034.12 229.815 1032.94 229.251C1031.92 228.841 1030.87 228.764 1029.8 229.02C1028.73 229.277 1027.78 229.713 1026.97 230.328C1025.18 231.712 1023.98 233.482 1023.37 235.635C1022.96 237.584 1022.7 239.635 1022.6 241.789C1022.55 243.943 1022.57 246.097 1022.68 248.251C1022.93 250.045 1023.11 251.891 1023.21 253.789C1023.31 255.635 1023.62 257.404 1024.13 259.096C1024.64 260.122 1025.38 260.917 1026.35 261.481C1027.32 262.045 1028.37 262.378 1029.49 262.481C1030.62 262.532 1031.74 262.378 1032.87 262.019C1033.99 261.609 1034.93 260.968 1035.7 260.096C1036.16 259.481 1036.49 258.994 1036.7 258.635C1036.9 258.225 1037.03 257.789 1037.08 257.327C1037.13 256.866 1037.13 256.327 1037.08 255.712C1037.08 255.045 1037.13 254.173 1037.23 253.097C1037.28 252.071 1037.31 251.174 1037.31 250.404C1037.36 249.635 1037.39 249.199 1037.39 249.097Z" fill="#7FBCA3"/>
<path d="M781.85 299.865C781.738 299.865 781.682 299.808 781.682 299.695V288.188C781.682 288.075 781.738 288.019 781.85 288.019H782.71C782.822 288.019 782.878 288.075 782.878 288.188V298.748C782.878 298.793 782.901 298.815 782.946 298.815H787.85C787.963 298.815 788.019 298.872 788.019 298.985V299.695C788.019 299.808 787.963 299.865 787.85 299.865H781.85Z" fill="white"/>
<path d="M789.981 299.865C789.869 299.865 789.813 299.808 789.813 299.695V288.188C789.813 288.075 789.869 288.019 789.981 288.019H790.841C790.953 288.019 791.009 288.075 791.009 288.188V299.695C791.009 299.808 790.953 299.865 790.841 299.865H789.981Z" fill="white"/>
<path d="M799.947 288.019C800.06 288.019 800.116 288.075 800.116 288.188V288.899C800.116 289.012 800.06 289.068 799.947 289.068H797.2C797.155 289.068 797.133 289.091 797.133 289.136V299.695C797.133 299.808 797.076 299.865 796.964 299.865H796.104C795.992 299.865 795.936 299.808 795.936 299.695V289.136C795.936 289.091 795.913 289.068 795.869 289.068H793.222C793.11 289.068 793.054 289.012 793.054 288.899V288.188C793.054 288.075 793.11 288.019 793.222 288.019H799.947Z" fill="white"/>
<path d="M808.662 288.899C808.662 289.012 808.606 289.068 808.494 289.068H803.438C803.393 289.068 803.37 289.091 803.37 289.136V293.332C803.37 293.378 803.393 293.4 803.438 293.4H806.842C806.955 293.4 807.011 293.457 807.011 293.569V294.28C807.011 294.393 806.955 294.449 806.842 294.449H803.438C803.393 294.449 803.37 294.472 803.37 294.517V298.748C803.37 298.793 803.393 298.815 803.438 298.815H808.494C808.606 298.815 808.662 298.872 808.662 298.985V299.695C808.662 299.808 808.606 299.865 808.494 299.865H802.342C802.23 299.865 802.174 299.808 802.174 299.695V288.188C802.174 288.075 802.23 288.019 802.342 288.019H808.494C808.606 288.019 808.662 288.075 808.662 288.188V288.899Z" fill="white"/>
<path d="M816.662 299.865C816.572 299.865 816.51 299.819 816.476 299.729L814.386 294.5C814.375 294.466 814.353 294.449 814.319 294.449H812.145C812.1 294.449 812.077 294.472 812.077 294.517V299.695C812.077 299.808 812.021 299.865 811.909 299.865H811.049C810.937 299.865 810.881 299.808 810.881 299.695V288.188C810.881 288.075 810.937 288.019 811.049 288.019H814.622C815.206 288.019 815.723 288.154 816.173 288.425C816.633 288.696 816.987 289.079 817.235 289.576C817.493 290.072 817.622 290.642 817.622 291.285C817.622 292.052 817.437 292.706 817.066 293.248C816.695 293.789 816.19 294.15 815.549 294.331C815.504 294.353 815.493 294.382 815.515 294.416L817.69 299.662L817.707 299.729C817.707 299.819 817.656 299.865 817.555 299.865H816.662ZM812.145 289.068C812.1 289.068 812.077 289.091 812.077 289.136V293.417C812.077 293.462 812.1 293.485 812.145 293.485H814.471C815.055 293.485 815.527 293.282 815.886 292.876C816.246 292.469 816.426 291.939 816.426 291.285C816.426 290.619 816.246 290.083 815.886 289.677C815.527 289.271 815.055 289.068 814.471 289.068H812.145Z" fill="white"/>
<path d="M825.927 299.865C825.825 299.865 825.764 299.814 825.741 299.712L825.185 297.597C825.174 297.563 825.146 297.546 825.101 297.546H821.073C821.028 297.546 820.999 297.563 820.988 297.597L820.432 299.712C820.41 299.814 820.348 299.865 820.247 299.865H819.37C819.314 299.865 819.269 299.848 819.235 299.814C819.213 299.78 819.207 299.735 819.219 299.678L822.37 288.171C822.393 288.07 822.455 288.019 822.556 288.019H823.634C823.735 288.019 823.797 288.07 823.82 288.171L826.972 299.678L826.988 299.729C826.988 299.819 826.932 299.865 826.82 299.865H825.927ZM821.275 296.497C821.264 296.508 821.264 296.525 821.275 296.548C821.297 296.559 821.32 296.565 821.342 296.565H824.831C824.853 296.565 824.87 296.559 824.882 296.548C824.904 296.525 824.91 296.508 824.898 296.497L823.112 289.694C823.101 289.672 823.089 289.66 823.078 289.66C823.067 289.66 823.056 289.672 823.044 289.694L821.275 296.497Z" fill="white"/>
<path d="M831.675 300C830.653 300 829.827 299.695 829.197 299.086C828.579 298.477 828.27 297.67 828.27 296.666V291.2C828.27 290.196 828.579 289.395 829.197 288.797C829.827 288.188 830.653 287.883 831.675 287.883C832.709 287.883 833.535 288.182 834.153 288.78C834.782 289.378 835.096 290.174 835.096 291.166V291.319C835.096 291.431 835.04 291.488 834.928 291.488L834.068 291.522C833.956 291.522 833.9 291.471 833.9 291.369V291.133C833.9 290.478 833.692 289.948 833.276 289.542C832.872 289.136 832.338 288.933 831.675 288.933C831.012 288.933 830.478 289.136 830.074 289.542C829.669 289.937 829.467 290.467 829.467 291.133V296.751C829.467 297.416 829.669 297.952 830.074 298.358C830.478 298.753 831.012 298.951 831.675 298.951C832.338 298.951 832.872 298.748 833.276 298.342C833.692 297.935 833.9 297.405 833.9 296.751V296.514C833.9 296.412 833.956 296.362 834.068 296.362L834.928 296.412C835.04 296.412 835.096 296.469 835.096 296.582V296.7C835.096 297.693 834.782 298.494 834.153 299.103C833.535 299.701 832.709 300 831.675 300Z" fill="white"/>
<path d="M837.631 299.865C837.518 299.865 837.462 299.808 837.462 299.695V288.188C837.462 288.075 837.518 288.019 837.631 288.019H838.49C838.603 288.019 838.659 288.075 838.659 288.188V299.695C838.659 299.808 838.603 299.865 838.49 299.865H837.631Z" fill="white"/>
<path d="M847.175 299.865C847.074 299.865 847.013 299.814 846.99 299.712L846.434 297.597C846.423 297.563 846.395 297.546 846.35 297.546H842.321C842.276 297.546 842.248 297.563 842.237 297.597L841.681 299.712C841.658 299.814 841.597 299.865 841.496 299.865H840.619C840.563 299.865 840.518 299.848 840.484 299.814C840.462 299.78 840.456 299.735 840.467 299.678L843.619 288.171C843.642 288.07 843.703 288.019 843.805 288.019H844.883C844.984 288.019 845.046 288.07 845.069 288.171L848.22 299.678L848.237 299.729C848.237 299.819 848.181 299.865 848.069 299.865H847.175ZM842.524 296.497C842.512 296.508 842.512 296.525 842.524 296.548C842.546 296.559 842.569 296.565 842.591 296.565H846.08C846.102 296.565 846.119 296.559 846.13 296.548C846.153 296.525 846.159 296.508 846.147 296.497L844.361 289.694C844.35 289.672 844.338 289.66 844.327 289.66C844.316 289.66 844.305 289.672 844.293 289.694L842.524 296.497Z" fill="white"/>
<path d="M856.479 300C855.457 300 854.631 299.695 854.002 299.086C853.384 298.477 853.075 297.67 853.075 296.666V291.2C853.075 290.196 853.384 289.395 854.002 288.797C854.631 288.188 855.457 287.883 856.479 287.883C857.513 287.883 858.339 288.182 858.957 288.78C859.586 289.378 859.901 290.174 859.901 291.166V291.319C859.901 291.431 859.844 291.488 859.732 291.488L858.872 291.522C858.76 291.522 858.704 291.471 858.704 291.369V291.133C858.704 290.478 858.496 289.948 858.08 289.542C857.676 289.136 857.142 288.933 856.479 288.933C855.816 288.933 855.282 289.136 854.878 289.542C854.473 289.937 854.271 290.467 854.271 291.133V296.751C854.271 297.416 854.473 297.952 854.878 298.358C855.282 298.753 855.816 298.951 856.479 298.951C857.142 298.951 857.676 298.748 858.08 298.342C858.496 297.935 858.704 297.405 858.704 296.751V296.514C858.704 296.412 858.76 296.362 858.872 296.362L859.732 296.412C859.844 296.412 859.901 296.469 859.901 296.582V296.7C859.901 297.693 859.586 298.494 858.957 299.103C858.339 299.701 857.513 300 856.479 300Z" fill="white"/>
<path d="M862.435 299.865C862.323 299.865 862.266 299.808 862.266 299.695V288.188C862.266 288.075 862.323 288.019 862.435 288.019H863.294C863.407 288.019 863.463 288.075 863.463 288.188V299.695C863.463 299.808 863.407 299.865 863.294 299.865H862.435Z" fill="white"/>
<path d="M872.755 288.899C872.755 289.012 872.699 289.068 872.586 289.068H867.53C867.485 289.068 867.463 289.091 867.463 289.136V293.332C867.463 293.378 867.485 293.4 867.53 293.4H870.935C871.047 293.4 871.103 293.457 871.103 293.569V294.28C871.103 294.393 871.047 294.449 870.935 294.449H867.53C867.485 294.449 867.463 294.472 867.463 294.517V298.748C867.463 298.793 867.485 298.815 867.53 298.815H872.586C872.699 298.815 872.755 298.872 872.755 298.985V299.695C872.755 299.808 872.699 299.865 872.586 299.865H866.434C866.322 299.865 866.266 299.808 866.266 299.695V288.188C866.266 288.075 866.322 288.019 866.434 288.019H872.586C872.699 288.019 872.755 288.075 872.755 288.188V288.899Z" fill="white"/>
<path d="M880.838 288.188C880.838 288.075 880.894 288.019 881.007 288.019H881.866C881.979 288.019 882.035 288.075 882.035 288.188V299.695C882.035 299.808 881.979 299.865 881.866 299.865H880.956C880.855 299.865 880.788 299.825 880.754 299.746L876.237 290.693C876.214 290.67 876.192 290.659 876.17 290.659C876.158 290.659 876.153 290.676 876.153 290.709L876.17 299.695C876.17 299.808 876.113 299.865 876.001 299.865H875.141C875.029 299.865 874.973 299.808 874.973 299.695V288.188C874.973 288.075 875.029 288.019 875.141 288.019H876.052C876.153 288.019 876.22 288.058 876.254 288.137L880.771 297.225C880.793 297.247 880.81 297.259 880.821 297.259C880.844 297.259 880.855 297.242 880.855 297.208L880.838 288.188Z" fill="white"/>
<path d="M890.967 288.019C891.079 288.019 891.135 288.075 891.135 288.188V288.899C891.135 289.012 891.079 289.068 890.967 289.068H888.22C888.175 289.068 888.152 289.091 888.152 289.136V299.695C888.152 299.808 888.096 299.865 887.984 299.865H887.124C887.012 299.865 886.956 299.808 886.956 299.695V289.136C886.956 289.091 886.933 289.068 886.888 289.068H884.242C884.13 289.068 884.074 289.012 884.074 288.899V288.188C884.074 288.075 884.13 288.019 884.242 288.019H890.967Z" fill="white"/>
<path d="M893.362 299.865C893.249 299.865 893.193 299.808 893.193 299.695V288.188C893.193 288.075 893.249 288.019 893.362 288.019H894.221C894.334 288.019 894.39 288.075 894.39 288.188V299.695C894.39 299.808 894.334 299.865 894.221 299.865H893.362ZM893.227 286.902C893.16 286.902 893.115 286.885 893.092 286.851C893.07 286.806 893.075 286.755 893.109 286.699L894.137 284.854C894.193 284.775 894.261 284.736 894.339 284.736H895.064C895.131 284.736 895.171 284.758 895.182 284.803C895.205 284.837 895.199 284.882 895.165 284.939L894.002 286.783C893.946 286.862 893.879 286.902 893.8 286.902H893.227Z" fill="white"/>
<path d="M903.665 288.899C903.665 289.012 903.609 289.068 903.496 289.068H898.457C898.412 289.068 898.39 289.091 898.39 289.136V293.332C898.39 293.378 898.412 293.4 898.457 293.4H901.845C901.957 293.4 902.013 293.457 902.013 293.569V294.28C902.013 294.393 901.957 294.449 901.845 294.449H898.457C898.412 294.449 898.39 294.472 898.39 294.517V299.695C898.39 299.808 898.333 299.865 898.221 299.865H897.361C897.249 299.865 897.193 299.808 897.193 299.695V288.188C897.193 288.075 897.249 288.019 897.361 288.019H903.496C903.609 288.019 903.665 288.075 903.665 288.188V288.899Z" fill="white"/>
<path d="M905.558 299.865C905.446 299.865 905.39 299.808 905.39 299.695V288.188C905.39 288.075 905.446 288.019 905.558 288.019H906.418C906.53 288.019 906.586 288.075 906.586 288.188V299.695C906.586 299.808 906.53 299.865 906.418 299.865H905.558Z" fill="white"/>
<path d="M912.474 300C911.451 300 910.625 299.695 909.996 299.086C909.378 298.477 909.069 297.67 909.069 296.666V291.2C909.069 290.196 909.378 289.395 909.996 288.797C910.625 288.188 911.451 287.883 912.474 287.883C913.507 287.883 914.333 288.182 914.951 288.78C915.58 289.378 915.895 290.174 915.895 291.166V291.319C915.895 291.431 915.839 291.488 915.726 291.488L914.867 291.522C914.754 291.522 914.698 291.471 914.698 291.369V291.133C914.698 290.478 914.49 289.948 914.075 289.542C913.67 289.136 913.136 288.933 912.474 288.933C911.811 288.933 911.277 289.136 910.872 289.542C910.468 289.937 910.266 290.467 910.266 291.133V296.751C910.266 297.416 910.468 297.952 910.872 298.358C911.277 298.753 911.811 298.951 912.474 298.951C913.136 298.951 913.67 298.748 914.075 298.342C914.49 297.935 914.698 297.405 914.698 296.751V296.514C914.698 296.412 914.754 296.362 914.867 296.362L915.726 296.412C915.839 296.412 915.895 296.469 915.895 296.582V296.7C915.895 297.693 915.58 298.494 914.951 299.103C914.333 299.701 913.507 300 912.474 300Z" fill="white"/>
<path d="M923.941 299.865C923.84 299.865 923.778 299.814 923.756 299.712L923.2 297.597C923.189 297.563 923.16 297.546 923.116 297.546H919.087C919.042 297.546 919.014 297.563 919.003 297.597L918.447 299.712C918.424 299.814 918.363 299.865 918.261 299.865H917.385C917.329 299.865 917.284 299.848 917.25 299.814C917.228 299.78 917.222 299.735 917.233 299.678L920.385 288.171C920.408 288.07 920.469 288.019 920.571 288.019H921.649C921.75 288.019 921.812 288.07 921.835 288.171L924.986 299.678L925.003 299.729C925.003 299.819 924.947 299.865 924.835 299.865H923.941ZM919.29 296.497C919.278 296.508 919.278 296.525 919.29 296.548C919.312 296.559 919.335 296.565 919.357 296.565H922.846C922.868 296.565 922.885 296.559 922.896 296.548C922.919 296.525 922.925 296.508 922.913 296.497L921.127 289.694C921.115 289.672 921.104 289.66 921.093 289.66C921.082 289.66 921.071 289.672 921.059 289.694L919.29 296.497Z" fill="white"/>
</g>
<defs>
<clipPath id="clip0_102_12">
<rect width="1728" height="1117" fill="white"/>
</clipPath>
</defs>
</svg>
