<svg width="598" height="335" viewBox="0 0 598 335" fill="none" xmlns="http://www.w3.org/2000/svg">
<g clip-path="url(#clip0_210_430)">
<path d="M557.494 315.497C557.332 321.531 556.319 327.512 554.485 333.264C554.444 333.397 554.399 333.529 554.355 333.662H543.127C543.139 333.542 543.151 333.409 543.163 333.264C543.911 324.675 539.635 273.026 534.474 264.086C534.926 264.812 558.364 288.207 557.494 315.497Z" fill="#7FBCA3"/>
<path d="M556.651 333.263C556.558 333.397 556.46 333.53 556.36 333.662H547.936C548 333.548 548.074 333.415 548.16 333.263C549.551 330.757 553.67 323.264 557.493 315.497C561.6 307.149 565.371 298.485 565.054 295.349C565.152 296.056 567.995 317.616 556.651 333.263Z" fill="#7FBCA3"/>
<path d="M31.0735 320.171C31.1938 324.652 31.9461 329.094 33.3083 333.366C33.3384 333.465 33.372 333.563 33.4046 333.662H41.7436C41.7349 333.573 41.7258 333.474 41.7171 333.366C41.1611 326.987 44.3375 288.628 48.1704 281.989C47.8346 282.527 30.4269 299.903 31.0735 320.171Z" fill="#7FBCA3"/>
<path d="M31.6993 333.366C31.769 333.465 31.8415 333.564 31.9158 333.662H38.172C38.1246 333.577 38.0696 333.478 38.0059 333.366C36.9725 331.505 33.9135 325.94 31.0742 320.171C28.024 313.971 25.2233 307.536 25.4591 305.208C25.386 305.732 23.2745 321.745 31.6993 333.366Z" fill="#7FBCA3"/>
<path d="M438.476 234.985C375.493 208.35 318.512 209.362 264.841 225.619C182.145 211.207 125.518 213.437 89.1953 234.985V168.085H438.476V234.985Z" fill="#CBCBCB"/>
<path d="M438.476 216.588C380.451 190.351 322.496 188.657 263.668 216.588C203.413 199.275 145.165 199.456 88.8601 216.588V13.2127C148.723 -4.61672 206.954 -4.18827 263.668 13.2127C323.576 -4.12816 381.898 -4.67813 438.476 13.2127V216.588Z" fill="#E5E5E5"/>
<path d="M104.585 38.4513L102.633 33.4662C103.398 33.168 121.677 26.1161 148.504 22.5189C173.307 19.1925 210.259 18.3984 245.453 33.5002L243.335 38.417C209.317 23.8206 173.457 24.5892 149.364 27.8036C123.14 31.3031 104.767 38.3801 104.585 38.4513Z" fill="#7FBCA3"/>
<path d="M104.585 57.1833L102.633 52.1982C103.398 51.8999 121.677 44.848 148.504 41.2509C173.307 37.9248 210.259 37.1307 245.453 52.2321L243.335 57.149C209.317 42.5526 173.457 43.3206 149.364 46.5355C123.14 50.035 104.767 57.1121 104.585 57.1833Z" fill="#7FBCA3"/>
<path d="M104.585 75.9152L102.633 70.9301C103.398 70.6318 121.677 63.5799 148.504 59.9828C173.307 56.6564 210.259 55.8623 245.453 70.964L243.335 75.8809C209.317 61.2845 173.457 62.0525 149.364 65.2674C123.14 68.7669 104.767 75.844 104.585 75.9152Z" fill="#7FBCA3"/>
<path d="M104.585 94.6469L102.633 89.6618C103.398 89.3635 121.677 82.3116 148.504 78.7145C173.307 75.3888 210.259 74.5937 245.453 89.6957L243.335 94.6126C209.317 80.0162 173.457 80.7845 149.364 83.9992C123.14 87.4987 104.767 94.5757 104.585 94.6469Z" fill="#7FBCA3"/>
<path d="M104.585 113.379L102.633 108.394C103.398 108.095 121.677 101.044 148.504 97.4464C173.307 94.12 210.259 93.3259 245.453 108.428L243.335 113.345C209.317 98.7478 173.457 99.5164 149.364 102.731C123.14 106.231 104.767 113.308 104.585 113.379Z" fill="#7FBCA3"/>
<path d="M104.585 132.111L102.633 127.126C103.398 126.827 121.677 119.775 148.504 116.178C173.307 112.853 210.259 112.058 245.453 127.16L243.335 132.076C209.317 117.48 173.457 118.249 149.364 121.463C123.14 124.962 104.767 132.04 104.585 132.111Z" fill="#7FBCA3"/>
<path d="M279.56 171.582L277.608 166.597C278.373 166.298 296.652 159.246 323.479 155.649C348.282 152.324 385.234 151.529 420.428 166.63L418.31 171.547C384.292 156.951 348.433 157.72 324.34 160.934C298.115 164.433 279.742 171.51 279.56 171.582Z" fill="#F24975"/>
<path d="M277.914 135.631V33.322L279.796 32.7354C327.491 17.8681 374.954 17.8711 420.868 32.7442L422.721 33.3446V135.495L419.093 134.128C371.313 116.134 325.062 116.123 281.623 134.097L277.914 135.631ZM348.684 115.26C371.133 115.26 394.024 119.436 417.358 127.787V37.2429C373.705 23.5053 328.612 23.5128 283.277 37.2648V127.663C304.108 119.474 326.295 115.266 348.684 115.26Z" fill="#F5C53E"/>
<path d="M417.469 168.931L418.172 151.904L442.27 104.091C442.95 102.732 444.058 101.633 445.424 100.963C446.26 100.546 447.172 100.3 448.104 100.24C449.037 100.179 449.973 100.304 450.857 100.609C451.88 100.961 452.809 101.544 453.569 102.313C454.33 103.082 454.902 104.016 455.241 105.042C455.386 105.485 455.489 105.941 455.546 106.404C455.718 107.777 455.474 109.17 454.847 110.404L430.716 158.281L417.469 168.931Z" fill="#F24975"/>
<path d="M448.425 100.56L422.266 152.461L420.271 151.46L445.572 101.263C446.458 100.82 447.433 100.58 448.425 100.56Z" fill="#3F3D56"/>
<path d="M455.214 106.446L430.052 156.369L428.057 155.368L454.162 103.575C454.483 104.063 454.739 104.592 454.923 105.147C455.061 105.57 455.159 106.005 455.214 106.446Z" fill="#3F3D56"/>
<path d="M452.709 101.992L426.261 154.466L424.266 153.465L450.747 100.925C451.03 101.021 451.305 101.137 451.571 101.271C451.973 101.473 452.354 101.715 452.709 101.992Z" fill="#3F3D56"/>
<path d="M420.495 166.07L417.833 168.209L418.056 162.57C418.97 162.886 419.959 164.259 420.495 166.07Z" fill="#3F3D56"/>
<path d="M178.338 200.235L166.276 189.481L145.727 143.087C145.139 141.772 145 140.3 145.331 138.897C145.529 138.034 145.898 137.219 146.415 136.5C146.932 135.78 147.587 135.171 148.343 134.707C149.217 134.169 150.204 133.841 151.226 133.747C152.247 133.652 153.277 133.795 154.233 134.164C154.646 134.324 155.042 134.523 155.416 134.759C156.525 135.46 157.4 136.475 157.928 137.676L178.505 184.133L178.338 200.235Z" fill="#7FBCA3"/>
<path d="M146.842 136.459L169.149 186.82L167.214 187.678L145.639 138.97C145.849 138.055 146.259 137.197 146.842 136.459Z" fill="#3F3D56"/>
<path d="M155.246 135.028L176.703 183.469L174.768 184.327L152.508 134.071C153.059 134.13 153.601 134.26 154.119 134.46C154.512 134.612 154.89 134.803 155.246 135.028Z" fill="#3F3D56"/>
<path d="M150.471 134.183L173.025 185.101L171.09 185.959L148.508 134.978C148.749 134.829 148.999 134.697 149.258 134.583C149.648 134.41 150.055 134.276 150.471 134.183Z" fill="#3F3D56"/>
<path d="M178.063 196.299L178.029 199.534L174.029 195.979C174.811 195.501 176.413 195.602 178.063 196.299Z" fill="#3F3D56"/>
<path d="M503.098 216.219C502.735 216.853 502.25 217.408 501.672 217.855C501.094 218.302 500.433 218.63 499.728 218.822C498.303 219.209 496.782 219.016 495.5 218.285C494.218 217.553 493.28 216.344 492.892 214.922C492.504 213.5 492.697 211.983 493.43 210.703C493.443 210.682 493.455 210.66 493.468 210.639C493.624 210.378 493.799 210.13 493.992 209.896L489.309 176.583L489.169 175.585L488.217 168.787L488.077 167.807L488.595 167.832L497.67 168.246L500.103 168.355L500.408 174.556L502.134 209.421C503.036 210.282 503.621 211.421 503.796 212.654C503.97 213.887 503.725 215.142 503.098 216.219Z" fill="#FFB8B8"/>
<path d="M489.195 175.887L500.719 174.832C501.316 174.776 501.867 174.486 502.251 174.025C502.636 173.565 502.822 172.972 502.77 172.375L500.636 148.463C500.43 146.16 499.315 144.033 497.537 142.55C495.76 141.067 493.465 140.349 491.157 140.555C488.849 140.76 486.717 141.873 485.231 143.646C483.745 145.42 483.025 147.711 483.231 150.014C483.246 150.179 483.266 150.343 483.29 150.506L486.745 173.961C486.824 174.498 487.095 174.989 487.506 175.344C487.918 175.7 488.444 175.896 488.988 175.897C489.057 175.898 489.127 175.895 489.195 175.887Z" fill="#CBCBCB"/>
<path d="M497.93 156.569C499.095 153.275 499.149 149.69 498.084 146.363C497.018 143.035 494.891 140.146 492.027 138.137C487.682 135.17 481.736 134.105 475.332 141.712C467.583 150.999 462.057 161.925 459.171 173.662L485.395 177.922C485.395 177.922 494.313 167.044 497.93 156.569Z" fill="#CBCBCB"/>
<path d="M455.517 327.946H448.04L444.483 299.168H455.518L455.517 327.946Z" fill="#FFB8B8"/>
<path d="M433.622 334.873H457.12V325.813H442.701C440.293 325.813 437.984 326.768 436.281 328.467C434.579 330.166 433.622 332.47 433.622 334.873Z" fill="#2F2E41"/>
<path d="M516.986 321.438L509.887 323.78L497.458 297.57L507.935 294.114L516.986 321.438Z" fill="#FFB8B8"/>
<path d="M498.375 334.873L520.686 327.514L517.837 318.912L504.146 323.428C501.86 324.182 499.967 325.811 498.885 327.958C497.803 330.104 497.619 332.592 498.375 334.873Z" fill="#2F2E41"/>
<path d="M481.468 130.591C489.74 130.591 496.447 123.899 496.447 115.644C496.447 107.389 489.74 100.697 481.468 100.697C473.196 100.697 466.49 107.389 466.49 115.644C466.49 123.899 473.196 130.591 481.468 130.591Z" fill="#FFB8B8"/>
<path d="M468.353 319.935L475.296 274.204C475.37 273.716 475.612 273.269 475.98 272.939C476.348 272.609 476.819 272.417 477.313 272.395C477.808 272.374 478.294 272.524 478.689 272.821C479.085 273.118 479.365 273.542 479.481 274.022L490.055 317.603C490.221 318.27 490.632 318.852 491.206 319.233C491.78 319.614 492.476 319.767 493.158 319.663L522.324 314.985C522.71 314.923 523.079 314.779 523.406 314.563C523.732 314.347 524.009 314.064 524.216 313.732C524.424 313.401 524.558 313.029 524.609 312.641C524.661 312.254 524.629 311.86 524.515 311.486L486.484 186.364C486.376 186.008 486.363 185.631 486.447 185.268L487.713 179.791C487.852 179.198 487.788 178.575 487.531 178.021C487.273 177.468 486.838 177.017 486.294 176.74C481.115 174.103 467.998 168.621 458.1 174.626C457.778 174.821 457.5 175.08 457.282 175.386C457.064 175.693 456.911 176.04 456.832 176.407L427.122 315.751C427.042 316.13 427.042 316.522 427.124 316.901C427.206 317.279 427.368 317.636 427.599 317.948C427.829 318.26 428.123 318.519 428.462 318.709C428.8 318.899 429.175 319.015 429.562 319.049L465.395 322.252C465.476 322.259 465.557 322.262 465.639 322.263C466.295 322.261 466.929 322.026 467.426 321.599C467.924 321.172 468.252 320.582 468.351 319.935L468.353 319.935Z" fill="#2F2E41"/>
<path d="M491.4 105.083C490.271 104.405 489.269 103.536 488.439 102.515C488.03 101.999 487.76 101.386 487.656 100.736C487.553 100.086 487.619 99.4202 487.848 98.8028C488.605 97.1365 490.853 96.6119 492.596 97.1773C494.339 97.7427 495.685 99.1077 496.958 100.423C498.08 101.579 499.234 102.791 499.764 104.312C500.294 105.833 500.022 107.762 498.699 108.685C497.4 109.59 495.532 109.22 494.283 108.247C493.104 107.184 492.164 105.883 491.524 104.431L491.4 105.083Z" fill="#2F2E41"/>
<path d="M496.473 100.824C496.556 96.6131 501.367 93.5928 505.522 94.3395C509.677 95.0862 512.87 98.6208 514.468 102.519C517.846 110.756 515.31 120.155 512.056 128.444C508.802 136.734 504.775 145.143 505.25 154.031C505.571 158.834 507.187 163.462 509.925 167.425C512.664 171.389 516.425 174.54 520.81 176.548C516.122 178.668 510.517 176.478 506.577 173.171C497.827 165.829 494.449 152.756 498.551 142.107C500.573 136.855 504.139 132.361 506.922 127.468C509.705 122.574 511.748 116.807 510.31 111.365C508.873 105.924 502.757 101.519 497.529 103.624L496.473 100.824Z" fill="#2F2E41"/>
<path d="M480.57 122.277C481.875 120.075 483.192 117.184 480.806 115.259C480.287 114.86 479.694 114.568 479.06 114.401C478.426 114.233 477.766 114.194 477.117 114.286C474.426 114.609 471.496 114.743 468.891 113.767C467.914 113.432 467.015 112.904 466.246 112.215C465.478 111.526 464.856 110.689 464.418 109.756C463.076 106.577 464.757 102.714 467.568 100.704C469.287 99.5194 471.319 98.8677 473.409 98.8308C475.498 98.7938 477.552 99.3733 479.312 100.497C482.953 98.8918 487.37 99.6056 490.678 101.815C493.986 104.024 496.249 107.561 497.478 111.339C498.611 114.59 498.806 118.094 498.041 121.45C497.426 123.785 496.256 125.938 494.63 127.726C493.004 129.514 490.97 130.885 488.701 131.722C487.817 132.07 486.857 132.18 485.917 132.041C484.977 131.903 484.09 131.52 483.345 130.931C482.134 129.847 481.204 128.487 480.635 126.967C480.138 125.301 479.873 123.453 480.57 122.277Z" fill="#2F2E41"/>
<path d="M436.135 135.614C436.21 135.942 436.258 136.276 436.281 136.612L462.478 151.694L468.845 148.035L475.634 156.904L464.992 164.473C464.132 165.085 463.096 165.402 462.041 165.376C460.985 165.35 459.966 164.983 459.137 164.331L432.121 143.063C430.901 143.514 429.573 143.584 428.313 143.263C427.053 142.942 425.921 142.246 425.067 141.267C424.213 140.288 423.678 139.073 423.533 137.783C423.388 136.494 423.64 135.191 424.256 134.047C424.871 132.904 425.821 131.975 426.978 131.384C428.136 130.792 429.447 130.566 430.736 130.737C432.025 130.907 433.232 131.464 434.196 132.336C435.159 133.207 435.835 134.35 436.131 135.614L436.135 135.614Z" fill="#FFB8B8"/>
<path d="M463.354 152.408L471.821 163.359C472.062 163.67 472.368 163.926 472.716 164.109C473.065 164.292 473.449 164.397 473.843 164.419C474.236 164.441 474.63 164.377 474.997 164.233C475.363 164.09 475.695 163.869 475.968 163.586L485.553 153.653C486.36 153.058 487.04 152.31 487.556 151.452C488.072 150.594 488.414 149.642 488.56 148.652C488.707 147.662 488.657 146.653 488.412 145.682C488.168 144.712 487.734 143.799 487.135 142.996C486.536 142.193 485.785 141.516 484.923 141.004C484.062 140.491 483.107 140.153 482.115 140.01C481.122 139.866 480.111 139.919 479.139 140.166C478.167 140.413 477.254 140.848 476.451 141.448C476.368 141.51 476.287 141.573 476.206 141.638L464.185 148.345C463.841 148.538 463.542 148.802 463.309 149.119C463.077 149.437 462.915 149.801 462.836 150.187C462.757 150.572 462.763 150.97 462.852 151.354C462.941 151.737 463.111 152.097 463.352 152.408H463.354Z" fill="#CBCBCB"/>
<path d="M256.094 335H0.670404C0.492601 335 0.322081 334.93 0.196356 334.804C0.0706311 334.679 0 334.509 0 334.331C0 334.154 0.0706311 333.984 0.196356 333.858C0.322081 333.733 0.492601 333.662 0.670404 333.662H256.094C256.272 333.662 256.442 333.733 256.568 333.858C256.694 333.984 256.765 334.154 256.765 334.331C256.765 334.509 256.694 334.679 256.568 334.804C256.442 334.93 256.272 335 256.094 335Z" fill="#7FBCA3"/>
<path d="M597.329 335H341.906C341.728 335 341.557 334.93 341.432 334.804C341.306 334.679 341.235 334.509 341.235 334.331C341.235 334.154 341.306 333.984 341.432 333.858C341.557 333.733 341.728 333.662 341.906 333.662H597.329C597.507 333.662 597.678 333.733 597.804 333.858C597.929 333.984 598 334.154 598 334.331C598 334.509 597.929 334.679 597.804 334.804C597.678 334.93 597.507 335 597.329 335Z" fill="#7FBCA3"/>
<path d="M264.338 13.2126H262.998V215.944H264.338V13.2126Z" fill="#CBCBCB"/>
<path d="M113.785 120L130.708 142.785C130.708 142.785 145.137 148.77 162 160.785L157.963 167C157.963 167 130.13 155.759 123.007 151.009L110 130.897L113.785 120Z" fill="#A0616A"/>
<path d="M171.654 171.586C173.244 169.259 171.356 165.202 167.437 162.524C163.518 159.846 159.052 159.561 157.462 161.888C155.872 164.215 157.76 168.273 161.679 170.951C165.598 173.629 170.064 173.913 171.654 171.586Z" fill="#A0616A"/>
<path d="M105 99.594L110.766 98C110.766 98 114.123 98.0063 116.017 101.219C117.91 104.432 131.318 133.08 130.682 134.19C130.047 135.3 129.16 135.545 130.298 136.164C131.437 136.784 132.48 136.47 131.704 137.398C130.927 138.326 132 140.364 132 140.364L117.208 151L105 99.594Z" fill="#CBCBCB"/>
<path d="M85.0014 328L91.7769 327.999L95 304L85 304.001L85.0014 328Z" fill="#A0616A"/>
<path d="M111.778 325.75L118.458 325.822L122.081 300.582L112.221 300.475L111.778 325.75Z" fill="#A0616A"/>
<path d="M135.076 329.295C135.292 329.661 135.419 330.841 135.425 331.267C135.443 332.574 134.427 333.638 133.157 333.642L112.168 333.713C111.302 333.716 110.59 332.995 110.578 332.102L110.565 331.203C110.565 331.203 109.491 328.503 111.584 325.163C111.584 325.163 114.276 327.763 118.191 323.663L119.332 321.476L127.892 327.828L132.597 328.407C133.626 328.534 134.535 328.381 135.076 329.295Z" fill="#2F2E41"/>
<path d="M108.076 329.295C108.292 329.661 108.419 330.841 108.425 331.267C108.443 332.574 107.427 333.638 106.157 333.642L85.1684 333.713C84.3018 333.716 83.5895 332.995 83.5775 332.102L83.5655 331.203C83.5655 331.203 82.4908 328.503 84.5837 325.163C84.5837 325.163 87.2756 327.763 91.1906 323.663L92.3319 321.476L100.892 327.828L105.597 328.407C106.626 328.534 107.535 328.381 108.076 329.295Z" fill="#2F2E41"/>
<path d="M122.517 191C122.517 191 131.774 201.396 131.774 210.926C131.774 220.455 132 250.391 132 250.391C132 250.391 126.581 297.125 125.227 301.024C123.872 304.922 123.195 311.42 123.195 311.42L110.099 308.387C110.099 308.387 108.293 264.421 113.712 254.025L100.617 218.506L96.1012 319H80.8993C80.8993 319 73.0717 266.154 77.1357 252.293C77.1357 252.293 68.1046 199.447 70.3624 196.415C72.6202 193.382 122.517 191 122.517 191Z" fill="#2F2E41"/>
<path d="M89.2879 86L101.152 86.8765L105.106 93.4502C105.106 93.4502 114.333 97.3944 115.652 103.092C116.97 108.789 117.409 175.402 117.409 175.402L124 185.044L123.561 193.371L70.8333 196V187.994L66 178.47C66 178.47 71.2727 102.215 72.5909 101.777C73.9091 101.339 84.0151 94.3267 84.0151 94.3267L89.2879 86Z" fill="#CBCBCB"/>
<path d="M96 85C103.732 85 110 78.2843 110 70C110 61.7157 103.732 55 96 55C88.268 55 82 61.7157 82 70C82 78.2843 88.268 85 96 85Z" fill="#A0616A"/>
<path d="M107.233 58.2796C106.48 56.1483 104.391 54.8552 102.127 54.9056C102.031 54.9077 101.936 54.9068 101.841 54.9029C100.701 54.8564 99.6063 54.4678 98.4883 54.2398C96.4048 53.8149 94.2078 53.9571 92.1968 54.6472C91.5717 54.8617 90.9458 55.1315 90.2848 55.1315C89.6238 55.1316 88.9038 54.7699 88.7425 54.1301C88.7043 54.7094 88.6661 55.2885 88.6279 55.8677C88.4128 55.3989 88.1977 54.9301 87.9826 54.4613L87.5518 56.3309L86.1717 54.7684C86.2951 55.4571 85.8928 56.1512 85.3481 56.5915C84.8034 57.0318 84.1306 57.2754 83.4857 57.5497C80.7024 58.7338 78.089 60.8301 77.287 63.7417C76.7803 65.5813 77.0454 67.5336 77.3139 69.4224C77.5512 71.0923 77.8092 72.8198 78.7187 74.2413C79.3017 75.1525 80.142 75.9192 80.497 76.9407C80.8279 77.8928 80.7025 78.9829 81.1733 79.8745C81.6461 80.77 82.6221 81.2767 83.5773 81.6169C84.5324 81.9573 85.5478 82.198 86.3704 82.7901C87.1929 83.3824 88.1476 85.0882 89.9398 84.9964L90.5182 83.9119C91.1133 83.4281 88.9112 83.8117 88.8882 83.046C88.8652 82.2803 91.5378 81.8073 91.1591 81.141C90.5782 80.1194 89.7923 79.2302 89.1377 78.2539C88.3722 77.1121 87.7702 75.778 88.0343 74.3844C88.137 73.8423 88.3913 73.3302 88.7786 72.9364C89.8949 71.8012 91.1396 72.3001 92.3492 72.4625C93.183 72.5746 94.1788 72.4452 94.6117 71.7253C95.1182 70.883 94.5537 69.8115 94.6227 68.8317C94.6959 67.7934 95.4841 66.942 96.3418 66.3501C97.1997 65.7582 98.1737 65.3269 98.9453 64.6268C99.717 63.9267 100.267 62.8329 99.9303 61.8477C103.588 60.3279 104.148 60.1841 108 61.111C107.816 60.1496 107.559 59.2025 107.233 58.2796Z" fill="#2F2E41"/>
<path d="M44.7393 247.889V202.894C44.7393 201.66 45.2653 200.479 46.1825 199.653C47.0997 198.828 48.3293 198.429 49.5569 198.558C60.9282 197.028 71.6381 197.756 81.3442 201.91C82.4437 201.91 83.3381 202.804 83.3381 203.904V249.056C83.3381 250.155 82.4437 251.05 81.3442 251.05C70.66 248.544 59.391 249.196 47.8996 251.05C46.157 251.05 44.7393 249.632 44.7393 247.889Z" fill="#E6E6E6"/>
<path d="M44.7393 251.895V206.424C44.7393 204.02 46.6953 202.064 49.0997 202.064C59.9735 199.219 70.7218 199.214 81.3443 202.064C82.4437 202.064 83.3381 202.958 83.3381 204.058V248.748C83.3381 249.846 82.4463 250.739 81.3492 250.742C70.8753 248.919 59.6556 250.694 47.8996 255.055C46.157 255.055 44.7393 253.638 44.7393 251.895Z" fill="#F2F2F2"/>
<path d="M69.8488 220.855H59.6809C56.0292 220.855 53.0583 217.884 53.0583 214.232C53.0583 210.581 56.0292 207.61 59.6809 207.61H69.8488C73.5008 207.61 76.4716 210.581 76.4716 214.232C76.4716 217.884 73.5008 220.855 69.8488 220.855Z" fill="#E6E6E6"/>
<path d="M80 132L79.5492 155.539C79.5492 155.539 78.1082 173.885 74.5297 194.53L66 195C66 195 67.0495 162.765 66.6671 154.283L67.2703 135.444L80 132Z" fill="#A0616A"/>
<path d="M71.4697 208.457C74.2865 208.361 76.4392 204.438 76.2779 199.694C76.1167 194.95 73.7025 191.182 70.8858 191.278C68.0691 191.373 65.9164 195.297 66.0776 200.041C66.2389 204.785 68.653 208.553 71.4697 208.457Z" fill="#A0616A"/>
<path d="M80.0177 104L73.9056 104.208C73.9056 104.208 70.6486 105.199 69.8453 108.747C69.0419 112.296 63.4107 149.016 64.3853 149.863C65.3599 150.71 66.3002 150.678 65.3941 151.589C64.488 152.5 63.3746 152.514 64.4271 153.15C65.4797 153.786 65.0952 156 65.0952 156L82 154.88L80.0177 104Z" fill="#CBCBCB"/>
</g>
<defs>
<clipPath id="clip0_210_430">
<rect width="598" height="335" fill="white"/>
</clipPath>
</defs>
</svg>
