<svg width="647" height="468" viewBox="0 0 647 468" fill="none" xmlns="http://www.w3.org/2000/svg">
<g clip-path="url(#clip0_210_359)">
<path d="M412.301 350.845V463.661H129.066C96.7947 463.661 70.5388 438.356 70.5388 407.253C70.5388 376.15 96.7947 350.845 129.066 350.845H412.301Z" fill="#F2F2F2"/>
<path d="M419.258 462.793C419.257 463.944 418.799 465.047 417.984 465.861C417.169 466.674 416.063 467.132 414.91 467.132H124.021C108.222 467.132 93.0703 460.869 81.8989 449.721C70.7275 438.573 64.4514 423.453 64.4514 407.687C64.4514 391.921 70.7275 376.801 81.8989 365.653C93.0703 354.505 108.222 348.242 124.021 348.242H414.91C416.063 348.242 417.169 348.699 417.984 349.513C418.8 350.326 419.258 351.43 419.258 352.581C419.258 353.732 418.8 354.835 417.984 355.649C417.169 356.463 416.063 356.92 414.91 356.92H124.021C110.528 356.92 97.5885 362.268 88.048 371.789C78.5075 381.31 73.1477 394.223 73.1477 407.687C73.1477 421.151 78.5075 434.064 88.048 443.585C97.5885 453.105 110.528 458.454 124.021 458.454H414.91C416.063 458.455 417.169 458.912 417.984 459.725C418.799 460.539 419.257 461.642 419.258 462.793Z" fill="#F24975"/>
<path d="M412.301 376.88H107.933C107.702 376.88 107.481 376.788 107.318 376.625C107.155 376.463 107.063 376.242 107.063 376.012C107.063 375.782 107.155 375.561 107.318 375.398C107.481 375.235 107.702 375.144 107.933 375.144H412.301C412.532 375.144 412.753 375.235 412.916 375.398C413.079 375.561 413.171 375.782 413.171 376.012C413.171 376.242 413.079 376.463 412.916 376.625C412.753 376.788 412.532 376.88 412.301 376.88Z" fill="#1C222B"/>
<path d="M412.301 397.707H107.933C107.702 397.707 107.481 397.616 107.318 397.453C107.155 397.29 107.063 397.069 107.063 396.839C107.063 396.609 107.155 396.388 107.318 396.226C107.481 396.063 107.702 395.971 107.933 395.971H412.301C412.532 395.971 412.753 396.063 412.916 396.226C413.079 396.388 413.171 396.609 413.171 396.839C413.171 397.069 413.079 397.29 412.916 397.453C412.753 397.616 412.532 397.707 412.301 397.707Z" fill="#1C222B"/>
<path d="M412.301 418.535H107.933C107.702 418.535 107.481 418.443 107.318 418.28C107.155 418.118 107.063 417.897 107.063 417.667C107.063 417.437 107.155 417.216 107.318 417.053C107.481 416.89 107.702 416.799 107.933 416.799H412.301C412.532 416.799 412.753 416.89 412.916 417.053C413.079 417.216 413.171 417.437 413.171 417.667C413.171 417.897 413.079 418.118 412.916 418.28C412.753 418.443 412.532 418.535 412.301 418.535Z" fill="#1C222B"/>
<path d="M412.301 439.362H107.933C107.702 439.362 107.481 439.271 107.318 439.108C107.155 438.945 107.063 438.724 107.063 438.494C107.063 438.264 107.155 438.043 107.318 437.881C107.481 437.718 107.702 437.627 107.933 437.627H412.301C412.532 437.627 412.753 437.718 412.916 437.881C413.079 438.043 413.171 438.264 413.171 438.494C413.171 438.724 413.079 438.945 412.916 439.108C412.753 439.271 412.532 439.362 412.301 439.362Z" fill="#1C222B"/>
<path d="M631.2 372.081L560.27 459.929L339.72 282.591C314.591 262.385 310.057 226.241 329.612 202.023C349.167 177.804 385.522 174.538 410.651 194.743L631.2 372.081Z" fill="#F2F2F2"/>
<path d="M566.233 463.609C565.509 464.505 564.458 465.077 563.312 465.2C562.165 465.323 561.017 464.987 560.119 464.265L333.609 282.135C321.307 272.243 313.446 257.88 311.756 242.204C310.067 226.529 314.686 210.826 324.599 198.549C334.511 186.272 348.905 178.428 364.613 176.742C380.321 175.056 396.057 179.665 408.359 189.557L634.869 371.688C635.314 372.045 635.684 372.486 635.958 372.986C636.232 373.487 636.404 374.036 636.466 374.603C636.527 375.169 636.476 375.742 636.315 376.289C636.154 376.836 635.887 377.346 635.528 377.79C635.17 378.234 634.727 378.603 634.226 378.876C633.725 379.149 633.174 379.321 632.606 379.382C632.038 379.443 631.464 379.391 630.916 379.231C630.368 379.07 629.857 378.803 629.412 378.445L402.903 196.315C397.701 192.129 391.724 189.007 385.312 187.126C378.901 185.246 372.181 184.645 365.537 185.357C358.893 186.069 352.454 188.08 346.589 191.275C340.724 194.471 335.547 198.789 331.355 203.981C327.162 209.174 324.035 215.14 322.154 221.539C320.272 227.937 319.672 234.643 320.388 241.273C321.104 247.904 323.122 254.328 326.327 260.18C329.532 266.031 333.86 271.196 339.065 275.378L565.575 457.508C566.472 458.23 567.046 459.278 567.169 460.422C567.293 461.566 566.956 462.713 566.233 463.609Z" fill="#7FBCA3"/>
<path d="M614.832 392.354L377.826 201.784C377.737 201.713 377.663 201.624 377.609 201.524C377.554 201.424 377.519 201.314 377.507 201.201C377.495 201.088 377.505 200.973 377.537 200.864C377.57 200.755 377.623 200.653 377.695 200.564C377.766 200.475 377.855 200.401 377.955 200.347C378.055 200.292 378.165 200.258 378.279 200.246C378.392 200.233 378.507 200.244 378.617 200.276C378.726 200.308 378.829 200.361 378.917 200.433L615.923 391.002C616.012 391.074 616.086 391.162 616.141 391.262C616.196 391.362 616.231 391.472 616.243 391.585C616.255 391.699 616.245 391.814 616.213 391.923C616.181 392.032 616.127 392.134 616.055 392.223C615.984 392.312 615.895 392.386 615.795 392.441C615.695 392.495 615.584 392.53 615.471 392.542C615.357 392.554 615.242 392.543 615.133 392.511C615.023 392.479 614.921 392.425 614.832 392.354Z" fill="#1C222B"/>
<path d="M601.737 408.572L364.731 218.002C364.552 217.858 364.438 217.648 364.413 217.419C364.389 217.191 364.456 216.962 364.601 216.783C364.745 216.603 364.955 216.489 365.184 216.464C365.413 216.44 365.643 216.507 365.823 216.651L602.828 407.22C602.917 407.292 602.991 407.38 603.046 407.48C603.101 407.58 603.136 407.69 603.148 407.803C603.16 407.917 603.15 408.031 603.118 408.141C603.086 408.25 603.032 408.352 602.961 408.441C602.889 408.53 602.8 408.604 602.7 408.659C602.6 408.713 602.49 408.748 602.376 408.76C602.262 408.772 602.147 408.761 602.038 408.729C601.928 408.697 601.826 408.643 601.737 408.572Z" fill="#1C222B"/>
<path d="M588.642 424.79L351.636 234.22C351.457 234.076 351.342 233.866 351.317 233.637C351.293 233.408 351.36 233.179 351.505 233C351.649 232.821 351.86 232.706 352.089 232.682C352.318 232.657 352.548 232.724 352.728 232.869L589.733 423.438C589.822 423.51 589.896 423.598 589.951 423.698C590.005 423.798 590.04 423.908 590.052 424.021C590.064 424.135 590.054 424.249 590.022 424.358C589.99 424.468 589.936 424.57 589.865 424.659C589.793 424.747 589.704 424.821 589.604 424.876C589.504 424.93 589.394 424.965 589.28 424.977C589.167 424.989 589.052 424.979 588.942 424.947C588.833 424.915 588.731 424.861 588.642 424.79Z" fill="#1C222B"/>
<path d="M575.547 441.008L338.542 250.438C338.453 250.367 338.379 250.278 338.324 250.178C338.269 250.078 338.235 249.969 338.223 249.855C338.21 249.742 338.221 249.627 338.253 249.518C338.285 249.409 338.338 249.307 338.41 249.218C338.482 249.129 338.57 249.055 338.67 249.001C338.771 248.946 338.881 248.912 338.994 248.9C339.108 248.887 339.223 248.898 339.332 248.93C339.442 248.962 339.544 249.015 339.633 249.087L576.638 439.656C576.727 439.728 576.802 439.816 576.856 439.916C576.911 440.016 576.946 440.126 576.958 440.239C576.97 440.353 576.96 440.467 576.928 440.577C576.896 440.686 576.842 440.788 576.771 440.877C576.699 440.966 576.611 441.04 576.51 441.095C576.41 441.149 576.3 441.184 576.186 441.196C576.072 441.208 575.958 441.197 575.848 441.165C575.738 441.133 575.636 441.079 575.547 441.008Z" fill="#1C222B"/>
<path d="M646.13 468H0.869624C0.638985 468 0.417792 467.909 0.254706 467.746C0.0916201 467.583 0 467.362 0 467.132C0 466.902 0.0916201 466.681 0.254706 466.519C0.417792 466.356 0.638985 466.264 0.869624 466.264H646.13C646.361 466.264 646.582 466.356 646.745 466.519C646.908 466.681 647 466.902 647 467.132C647 467.362 646.908 467.583 646.745 467.746C646.582 467.909 646.361 468 646.13 468Z" fill="#1C222B"/>
<path d="M294.003 338.987L284.062 338.986L279.333 300.719L294.007 300.721L294.003 338.987Z" fill="#FFB8B8"/>
<path d="M276.96 336.152H296.133V348.199H264.888C264.888 346.617 265.2 345.05 265.807 343.589C266.413 342.127 267.302 340.799 268.423 339.68C269.544 338.562 270.875 337.674 272.34 337.069C273.805 336.463 275.374 336.152 276.96 336.152Z" fill="#2F2E41"/>
<path d="M192.436 338.987L182.494 338.986L177.766 300.719L192.439 300.721L192.436 338.987Z" fill="#FFB8B8"/>
<path d="M175.393 336.152H194.566V348.199H163.321C163.321 346.617 163.633 345.05 164.239 343.589C164.846 342.127 165.735 340.799 166.856 339.68C167.977 338.562 169.308 337.674 170.773 337.069C172.237 336.463 173.807 336.152 175.393 336.152Z" fill="#2F2E41"/>
<path d="M225.642 55.1349V50.7958C225.642 43.3732 228.597 36.2546 233.856 31.006C239.116 25.7574 246.249 22.8088 253.687 22.8088C261.126 22.8088 268.259 25.7574 273.519 31.006C278.778 36.2546 281.733 43.3732 281.733 50.7958V55.1349C281.733 60.4861 279.603 65.6181 275.811 69.402C272.019 73.1858 266.876 75.3116 261.514 75.3116H245.861C243.206 75.3116 240.577 74.7897 238.124 73.7757C235.67 72.7618 233.442 71.2756 231.564 69.402C229.687 67.5284 228.197 65.3041 227.181 62.8562C226.165 60.4082 225.642 57.7845 225.642 55.1349Z" fill="#2F2E41"/>
<path d="M253.687 76.8046C265.484 76.8046 275.046 67.2618 275.046 55.4902C275.046 43.7186 265.484 34.1758 253.687 34.1758C241.891 34.1758 232.329 43.7186 232.329 55.4902C232.329 67.2618 241.891 76.8046 253.687 76.8046Z" fill="#FFB8B8"/>
<path d="M137.509 128.745C138.376 127.928 139.411 127.311 140.543 126.937C141.675 126.563 142.875 126.441 144.059 126.58C145.243 126.719 146.382 127.115 147.396 127.74C148.41 128.366 149.274 129.206 149.927 130.201L168.237 126.745L173.055 137.336L147.13 141.854C145.382 142.839 143.333 143.15 141.371 142.728C139.409 142.306 137.671 141.18 136.485 139.564C135.299 137.948 134.748 135.954 134.937 133.96C135.126 131.966 136.041 130.111 137.509 128.745Z" fill="#FFB8B8"/>
<path d="M237.275 90.5898L207.251 110.328L156.588 126.472C155.916 126.687 155.34 127.128 154.958 127.72C154.575 128.311 154.41 129.017 154.49 129.716L155.595 139.216C155.644 139.636 155.781 140.042 155.996 140.406C156.212 140.771 156.501 141.087 156.846 141.333C157.19 141.58 157.583 141.752 157.998 141.838C158.413 141.925 158.842 141.924 159.257 141.835L206.938 131.636C209.246 131.145 211.427 130.186 213.348 128.819L247.079 104.87C248.302 103.997 249.278 102.824 249.911 101.463C250.545 100.102 250.815 98.6013 250.695 97.1057C250.572 95.608 250.06 94.1683 249.209 92.9281C248.359 91.6879 247.199 90.69 245.845 90.0326C244.491 89.3751 242.989 89.0808 241.486 89.1785C239.983 89.2762 238.532 89.7625 237.275 90.5898Z" fill="#FF3167"/>
<path d="M284.239 328.128C283.476 328.128 282.729 327.907 282.091 327.49C281.452 327.074 280.948 326.481 280.641 325.784L235.064 213.401C234.958 213.157 234.779 212.952 234.552 212.813C234.325 212.673 234.061 212.607 233.795 212.621C233.529 212.636 233.274 212.732 233.064 212.896C232.854 213.06 232.7 213.284 232.622 213.538L195.438 322.947C195.281 323.456 195.021 323.928 194.675 324.333C194.328 324.739 193.903 325.069 193.424 325.304C192.945 325.539 192.422 325.674 191.889 325.7C191.356 325.726 190.823 325.643 190.323 325.456L177.854 320.79C177.177 320.539 176.584 320.105 176.139 319.538C175.694 318.97 175.416 318.291 175.335 317.575C169.725 268.81 218.642 145.722 219.137 144.485L219.274 144.142L263.866 153.985L263.959 154.086C281.749 173.454 296.372 295.611 299.123 319.903C299.226 320.78 299.026 321.666 298.556 322.415C298.086 323.163 297.375 323.73 296.54 324.022L285.533 327.906C285.118 328.053 284.68 328.128 284.239 328.128Z" fill="#2F2E41"/>
<path d="M245.819 157.947C235.015 157.947 222.97 155.798 219.262 146.925L219.177 146.721L219.292 146.532C222.219 141.741 226.087 133.567 224.008 132.033C219.912 129.011 217.925 124.04 218.102 117.258C218.485 102.535 228.538 89.4626 243.117 84.7299C247.187 83.4303 251.328 82.3662 255.521 81.543C258.577 80.9276 261.732 80.9952 264.759 81.7412C267.786 82.4872 270.61 83.893 273.028 85.8575C275.477 87.8349 277.456 90.3289 278.824 93.1604C280.191 95.9919 280.914 99.0905 280.938 102.234C281.091 117.968 278.664 139.882 266.231 154.928C265.649 155.626 264.838 156.096 263.942 156.256C257.96 157.336 251.897 157.902 245.819 157.947Z" fill="#FF3167"/>
<path d="M241.8 157.358C242.388 155.253 243.784 153.465 245.686 152.382C247.588 151.299 249.841 151.009 251.956 151.575C252.387 151.695 252.808 151.851 253.215 152.04L267.117 139.414L276.785 145.915L256.904 163.471C256.007 165.086 254.593 166.356 252.889 167.077C251.185 167.798 249.289 167.93 247.501 167.452C246.46 167.167 245.485 166.68 244.634 166.017C243.782 165.354 243.071 164.53 242.541 163.591C242.011 162.653 241.672 161.619 241.545 160.549C241.418 159.479 241.504 158.394 241.8 157.358Z" fill="#FFB8B8"/>
<path d="M264.915 157.518C264.013 157.519 263.138 157.208 262.44 156.637L256.958 152.166C256.501 151.794 256.134 151.323 255.886 150.789C255.637 150.254 255.512 149.671 255.521 149.082C255.531 148.493 255.673 147.914 255.938 147.388C256.203 146.862 256.585 146.402 257.053 146.044L280.047 128.445C280.32 128.235 280.498 127.927 280.545 127.586C280.591 127.246 280.501 126.901 280.294 126.627L266.101 107.903C264.452 105.735 263.625 103.054 263.766 100.336C263.908 97.6179 265.008 95.0372 266.873 93.0509C268.837 90.9341 271.526 89.6316 274.408 89.4016C277.289 89.1716 280.152 90.031 282.428 91.8093L282.518 91.9038L297.338 113.08C298.941 114.334 300.231 115.941 301.109 117.775C301.986 119.609 302.427 121.62 302.397 123.652C302.366 125.684 301.866 127.682 300.934 129.489C300.002 131.296 298.664 132.863 297.025 134.069L267.244 156.753C266.57 157.25 265.754 157.518 264.915 157.518Z" fill="#FF3167"/>
<path d="M234.768 49.4941V38.9188L253.687 30.6745L271.727 38.9188V49.4941C271.727 49.9544 271.544 50.3959 271.218 50.7213C270.891 51.0468 270.449 51.2297 269.988 51.2297H236.507C236.046 51.2297 235.604 51.0468 235.277 50.7213C234.951 50.3959 234.768 49.9544 234.768 49.4941Z" fill="#2F2E41"/>
<path d="M252.819 24.2117C250.037 15.3266 255.879 5.14381 264.516 1.62684C273.153 -1.89012 283.485 0.568346 290.773 6.3789C298.061 12.1895 302.582 20.8926 304.978 29.889C307.374 38.8854 307.829 48.2666 308.271 57.5648C318.882 59.5099 326.101 72.0697 322.425 82.1919C318.749 92.3141 305.143 97.3429 295.747 92.0523C286.35 86.7616 283.629 72.5398 290.41 64.1662C293.619 60.204 295.412 55.2867 295.504 50.1931C295.596 45.0995 293.983 40.1208 290.919 36.0456C287.856 31.9703 283.518 29.0314 278.592 27.6944C273.665 26.3574 268.433 26.6987 263.723 28.6642C258.494 30.8466 251.932 25.1761 252.819 24.2117Z" fill="#2F2E41"/>
</g>
<defs>
<clipPath id="clip0_210_359">
<rect width="647" height="468" fill="white"/>
</clipPath>
</defs>
</svg>
